Bodoni-16-Book-Italic.ufo
<glyph name="dollar" format="2">
  <advance width="1109"/>
  <unicode hex="0024"/>
  <outline>
    <contour>
      <point x="698" y="1660" type="line"/>
      <point x="730" y="1660" type="line"/>
      <point x="310" y="-160" type="line"/>
      <point x="278" y="-160" type="line"/>
    </contour>
    <contour>
      <point x="880" y="1660" type="line"/>
      <point x="912" y="1660" type="line"/>
      <point x="492" y="-160" type="line"/>
      <point x="460" y="-160" type="line"/>
    </contour>
    <contour>
      <point x="400" y="1218" type="curve" smooth="yes"/>
      <point x="400" y="840"/>
      <point x="1030" y="960"/>
      <point x="1030" y="420" type="curve" smooth="yes"/>
      <point x="1030" y="140"/>
      <point x="792" y="-30"/>
      <point x="510" y="-30" type="curve" smooth="yes"/>
      <point x="238" y="-30"/>
      <point x="60" y="150"/>
      <point x="60" y="290" type="curve" smooth="yes"/>
      <point x="60" y="382"/>
      <point x="112" y="454"/>
      <point x="200" y="454" type="curve" smooth="yes"/>
      <point x="260" y="454"/>
      <point x="328" y="410"/>
      <point x="328" y="322" type="curve" smooth="yes"/>
      <point x="328" y="242"/>
      <point x="262" y="192"/>
      <point x="194" y="192" type="curve" smooth="yes"/>
      <point x="148" y="192"/>
      <point x="114" y="220"/>
      <point x="106" y="236" type="curve"/>
      <point x="148" y="128"/>
      <point x="284" y="-2"/>
      <point x="510" y="-2" type="curve" smooth="yes"/>
      <point x="722" y="-2"/>
      <point x="850" y="152"/>
      <point x="850" y="330" type="curve" smooth="yes"/>
      <point x="850" y="760"/>
      <point x="240" y="590"/>
      <point x="240" y="1090" type="curve" smooth="yes"/>
      <point x="240" y="1330"/>
      <point x="472" y="1520"/>
      <point x="714" y="1520" type="curve" smooth="yes"/>
      <point x="930" y="1520"/>
      <point x="1130" y="1372"/>
      <point x="1130" y="1210" type="curve" smooth="yes"/>
      <point x="1130" y="1118"/>
      <point x="1078" y="1046"/>
      <point x="990" y="1046" type="curve" smooth="yes"/>
      <point x="930" y="1046"/>
      <point x="862" y="1090"/>
      <point x="862" y="1178" type="curve" smooth="yes"/>
      <point x="862" y="1258"/>
      <point x="928" y="1308"/>
      <point x="996" y="1308" type="curve" smooth="yes"/>
      <point x="1036" y="1308"/>
      <point x="1066" y="1280"/>
      <point x="1076" y="1262" type="curve"/>
      <point x="1060" y="1372"/>
      <point x="914" y="1486"/>
      <point x="734" y="1486" type="curve" smooth="yes"/>
      <point x="522" y="1486"/>
      <point x="400" y="1376"/>
    </contour>
  </outline>
</glyph>
<glyph name="parenleft" format="2">
  <advance width="723"/>
  <unicode hex="0028"/>
  <outline>
    <contour>
      <point x="558" y="-316" type="curve"/>
      <point x="546" y="-340" type="line"/>
      <point x="320" y="-240"/>
      <point x="164" y="24"/>
      <point x="164" y="370" type="curve" smooth="yes"/>
      <point x="164" y="956"/>
      <point x="580" y="1440"/>
      <point x="966" y="1600" type="curve"/>
      <point x="978" y="1576" type="line"/>
      <point x="670" y="1416"/>
      <point x="348" y="814"/>
      <point x="348" y="330" type="curve" smooth="yes"/>
      <point x="348" y="-34"/>
      <point x="410" y="-176"/>
    </contour>
  </outline>
</glyph>
<glyph name="comma" format="2">
  <advance width="429"/>
  <unicode hex="002C"/>
  <outline>
    <contour>
      <point x="20" y="92" type="curve" smooth="yes"/>
      <point x="20" y="158"/>
      <point x="78" y="216"/>
      <point x="154" y="216" type="curve" smooth="yes"/>
      <point x="232" y="216"/>
      <point x="288" y="168"/>
      <point x="288" y="62" type="curve" smooth="yes"/>
      <point x="288" y="-118"/>
      <point x="106" y="-312"/>
      <point x="-74" y="-312" type="curve"/>
      <point x="-74" y="-284" type="line"/>
      <point x="64" y="-284"/>
      <point x="242" y="-136"/>
      <point x="250" y="44" type="curve"/>
      <point x="236" y="8"/>
      <point x="202" y="-20"/>
      <point x="144" y="-20" type="curve" smooth="yes"/>
      <point x="58" y="-20"/>
      <point x="20" y="32"/>
    </contour>
  </outline>
</glyph>
<glyph name="two" format="2">
  <advance width="1099"/>
  <unicode hex="0032"/>
  <outline>
    <contour>
      <point x="220" y="1098" type="curve"/>
      <point x="238" y="1132"/>
      <point x="268" y="1164"/>
      <point x="318" y="1164" type="curve" smooth="yes"/>
      <point x="376" y="1164"/>
      <point x="436" y="1122"/>
      <point x="436" y="1052" type="curve" smooth="yes"/>
      <point x="436" y="972"/>
      <point x="380" y="924"/>
      <point x="310" y="924" type="curve" smooth="yes"/>
      <point x="240" y="924"/>
      <point x="182" y="974"/>
      <point x="182" y="1058" type="curve" smooth="yes"/>
      <point x="182" y="1292"/>
      <point x="396" y="1520"/>
      <point x="670" y="1520" type="curve" smooth="yes"/>
      <point x="912" y="1520"/>
      <point x="1074" y="1400"/>
      <point x="1074" y="1200" type="curve" smooth="yes"/>
      <point x="1074" y="1000"/>
      <point x="828" y="816"/>
      <point x="710" y="722" type="curve" smooth="yes"/>
      <point x="52" y="180" type="line"/>
      <point x="838" y="180" type="line"/>
      <point x="870" y="330" type="line"/>
      <point x="898" y="330" type="line"/>
      <point x="828" y="0" type="line"/>
      <point x="-82" y="0" type="line"/>
      <point x="-54" y="130" type="line"/>
      <point x="496" y="592" type="line" smooth="yes"/>
      <point x="672" y="740"/>
      <point x="874" y="972"/>
      <point x="874" y="1160" type="curve" smooth="yes"/>
      <point x="874" y="1368"/>
      <point x="790" y="1474"/>
      <point x="614" y="1474" type="curve" smooth="yes"/>
      <point x="422" y="1474"/>
      <point x="232" y="1286"/>
    </contour>
  </outline>
</glyph>
<glyph name="three" format="2">
  <advance width="2134"/>
  <unicode hex="0033"/>
  <outline>
    <contour>
      <point x="594" y="2499" type="curve" smooth="yes"/>
      <point x="594" y="2794"/>
      <point x="938" y="3109"/>
      <point x="1438" y="3109" type="curve" smooth="yes"/>
      <point x="1811" y="3109"/>
      <point x="2175" y="2995"/>
      <point x="2175" y="2544" type="curve" smooth="yes"/>
      <point x="2175" y="2134"/>
      <point x="1839" y="1651"/>
      <point x="893" y="1651" type="curve"/>
      <point x="893" y="1692" type="line"/>
      <point x="1544" y="1692"/>
      <point x="1761" y="2253"/>
      <point x="1761" y="2544" type="curve" smooth="yes"/>
      <point x="1761" y="2863"/>
      <point x="1635" y="3031"/>
      <point x="1311" y="3031" type="curve" smooth="yes"/>
      <point x="1020" y="3031"/>
      <point x="749" y="2847"/>
      <point x="692" y="2646" type="curve"/>
      <point x="708" y="2666"/>
      <point x="766" y="2699"/>
      <point x="827" y="2699" type="curve" smooth="yes"/>
      <point x="946" y="2699"/>
      <point x="1061" y="2617"/>
      <point x="1061" y="2474" type="curve" smooth="yes"/>
      <point x="1061" y="2310"/>
      <point x="929" y="2245"/>
      <point x="827" y="2245" type="curve" smooth="yes"/>
      <point x="704" y="2245"/>
      <point x="594" y="2331"/>
    </contour>
    <contour>
      <point x="20" y="557" type="curve" smooth="yes"/>
      <point x="20" y="725"/>
      <point x="123" y="823"/>
      <point x="266" y="823" type="curve" smooth="yes"/>
      <point x="389" y="823"/>
      <point x="487" y="741"/>
      <point x="487" y="594" type="curve" smooth="yes"/>
      <point x="487" y="463"/>
      <point x="373" y="369"/>
      <point x="254" y="369" type="curve" smooth="yes"/>
      <point x="180" y="369"/>
      <point x="131" y="409"/>
      <point x="115" y="442" type="curve"/>
      <point x="131" y="249"/>
      <point x="381" y="37"/>
      <point x="799" y="37" type="curve" smooth="yes"/>
      <point x="1286" y="37"/>
      <point x="1556" y="528"/>
      <point x="1556" y="942" type="curve" smooth="yes"/>
      <point x="1556" y="1261"/>
      <point x="1462" y="1638"/>
      <point x="893" y="1638" type="curve"/>
      <point x="893" y="1675" type="line"/>
      <point x="1757" y="1675"/>
      <point x="1970" y="1393"/>
      <point x="1970" y="942" type="curve" smooth="yes"/>
      <point x="1970" y="410"/>
      <point x="1442" y="-41"/>
      <point x="864" y="-41" type="curve" smooth="yes"/>
      <point x="282" y="-41"/>
      <point x="20" y="262"/>
    </contour>
  </outline>
</glyph>
<glyph name="four" format="2">
  <advance width="1189"/>
  <unicode hex="0034"/>
  <outline>
    <contour>
      <point x="1020" y="28" type="line"/>
      <point x="1020" y="0" type="line"/>
      <point x="490" y="0" type="line"/>
      <point x="490" y="28" type="line"/>
    </contour>
    <contour>
      <point x="1170" y="1500" type="line"/>
      <point x="850" y="0" type="line"/>
      <point x="660" y="0" type="line"/>
      <point x="964" y="1440" type="line"/>
      <point x="130" y="444" type="line"/>
      <point x="1170" y="444" type="line"/>
      <point x="1170" y="416" type="line"/>
      <point x="70" y="416" type="line"/>
      <point x="978" y="1500" type="line"/>
    </contour>
  </outline>
</glyph>
<glyph name="five" format="2">
  <advance width="1000"/>
  <unicode hex="0035"/>
  <outline>
    <contour>
      <point x="940" y="560" type="curve" smooth="yes"/>
      <point x="940" y="260"/>
      <point x="654" y="-20"/>
      <point x="352" y="-20" type="curve" smooth="yes"/>
      <point x="148" y="-20"/>
      <point x="0" y="114"/>
      <point x="0" y="258" type="curve" smooth="yes"/>
      <point x="0" y="340"/>
      <point x="54" y="382"/>
      <point x="114" y="382" type="curve" smooth="yes"/>
      <point x="164" y="382"/>
      <point x="228" y="350"/>
      <point x="228" y="270" type="curve" smooth="yes"/>
      <point x="228" y="200"/>
      <point x="172" y="160"/>
      <point x="114" y="160" type="curve" smooth="yes"/>
      <point x="78" y="160"/>
      <point x="54" y="176"/>
      <point x="46" y="192" type="curve"/>
      <point x="64" y="114"/>
      <point x="164" y="10"/>
      <point x="332" y="10" type="curve" smooth="yes"/>
      <point x="590" y="10"/>
      <point x="730" y="332"/>
      <point x="730" y="560" type="curve" smooth="yes"/>
      <point x="730" y="748"/>
      <point x="666" y="906"/>
      <point x="508" y="906" type="curve" smooth="yes"/>
      <point x="378" y="906"/>
      <point x="242" y="848"/>
      <point x="172" y="754" type="curve"/>
      <point x="146" y="754" type="line"/>
      <point x="218" y="868"/>
      <point x="362" y="940"/>
      <point x="544" y="940" type="curve" smooth="yes"/>
      <point x="786" y="940"/>
      <point x="940" y="820"/>
    </contour>
    <contour>
      <point x="1050" y="1320" type="line"/>
      <point x="360" y="1320" type="line"/>
      <point x="162" y="754" type="line"/>
      <point x="134" y="754" type="line"/>
      <point x="394" y="1500" type="line"/>
      <point x="1060" y="1500" type="line"/>
      <point x="1082" y="1610" type="line"/>
      <point x="1110" y="1610" type="line"/>
    </contour>
  </outline>
</glyph>
<glyph name="six" format="2">
  <advance width="2293"/>
  <unicode hex="0036"/>
  <outline>
    <contour>
      <point x="1802" y="1229" type="curve" smooth="yes"/>
      <point x="1802" y="1655"/>
      <point x="1712" y="1913"/>
      <point x="1470" y="1913" type="curve" smooth="yes"/>
      <point x="942" y="1913"/>
      <point x="614" y="1147"/>
      <point x="614" y="696" type="curve"/>
      <point x="573" y="696" type="line"/>
      <point x="573" y="1175"/>
      <point x="902" y="2007"/>
      <point x="1561" y="2007" type="curve" smooth="yes"/>
      <point x="1893" y="2007"/>
      <point x="2212" y="1802"/>
      <point x="2212" y="1229" type="curve" smooth="yes"/>
      <point x="2212" y="615"/>
      <point x="1617" y="-41"/>
      <point x="999" y="-41" type="curve" smooth="yes"/>
      <point x="544" y="-41"/>
      <point x="205" y="246"/>
      <point x="205" y="901" type="curve" smooth="yes"/>
      <point x="205" y="1773"/>
      <point x="1155" y="3113"/>
      <point x="2314" y="3113" type="curve"/>
      <point x="2314" y="3064" type="line"/>
      <point x="1384" y="3064"/>
      <point x="631" y="1782"/>
      <point x="631" y="991" type="curve"/>
      <point x="614" y="696" type="line"/>
      <point x="614" y="311"/>
      <point x="729" y="16"/>
      <point x="1012" y="16" type="curve" smooth="yes"/>
      <point x="1458" y="16"/>
      <point x="1802" y="721"/>
    </contour>
  </outline>
</glyph>
<glyph name="seven" format="2">
  <advance width="2068"/>
  <unicode hex="0037"/>
  <outline>
    <contour>
      <point x="606" y="270" type="curve" smooth="yes"/>
      <point x="606" y="569"/>
      <point x="1037" y="1175"/>
      <point x="1352" y="1630" type="curve" smooth="yes"/>
      <point x="1540" y="1900"/>
      <point x="1876" y="2355"/>
      <point x="2126" y="2683" type="curve"/>
      <point x="590" y="2683" type="line"/>
      <point x="524" y="2376" type="line"/>
      <point x="467" y="2376" type="line"/>
      <point x="614" y="3072" type="line"/>
      <point x="2478" y="3072" type="line"/>
      <point x="2478" y="3072"/>
      <point x="1790" y="2146"/>
      <point x="1425" y="1630" type="curve" smooth="yes"/>
      <point x="1151" y="1245"/>
      <point x="868" y="864"/>
      <point x="868" y="680" type="curve" smooth="yes"/>
      <point x="868" y="487"/>
      <point x="1139" y="517"/>
      <point x="1139" y="238" type="curve" smooth="yes"/>
      <point x="1139" y="86"/>
      <point x="1048" y="-41"/>
      <point x="868" y="-41" type="curve" smooth="yes"/>
      <point x="729" y="-41"/>
      <point x="606" y="69"/>
    </contour>
  </outline>
</glyph>
<glyph name="question" format="2">
  <advance width="1099"/>
  <unicode hex="003F"/>
  <outline>
    <contour>
      <point x="582" y="676" type="curve"/>
      <point x="528" y="418" type="line"/>
      <point x="500" y="418" type="line"/>
      <point x="560" y="694" type="line"/>
      <point x="794" y="756"/>
      <point x="988" y="974"/>
      <point x="988" y="1220" type="curve" smooth="yes"/>
      <point x="988" y="1368"/>
      <point x="950" y="1490"/>
      <point x="772" y="1490" type="curve" smooth="yes"/>
      <point x="550" y="1490"/>
      <point x="400" y="1346"/>
      <point x="386" y="1244" type="curve"/>
      <point x="392" y="1260"/>
      <point x="418" y="1280"/>
      <point x="454" y="1280" type="curve" smooth="yes"/>
      <point x="512" y="1280"/>
      <point x="568" y="1240"/>
      <point x="568" y="1170" type="curve" smooth="yes"/>
      <point x="568" y="1090"/>
      <point x="504" y="1058"/>
      <point x="454" y="1058" type="curve" smooth="yes"/>
      <point x="394" y="1058"/>
      <point x="340" y="1100"/>
      <point x="340" y="1182" type="curve" smooth="yes"/>
      <point x="340" y="1346"/>
      <point x="528" y="1520"/>
      <point x="792" y="1520" type="curve" smooth="yes"/>
      <point x="1014" y="1520"/>
      <point x="1190" y="1420"/>
      <point x="1190" y="1180" type="curve" smooth="yes"/>
      <point x="1190" y="910"/>
      <point x="892" y="692"/>
    </contour>
    <component base="period" xOffset="298"/>
  </outline>
</glyph>
<glyph name="at" format="2">
  <advance width="2019"/>
  <unicode hex="0040"/>
  <outline>
    <contour>
      <point x="1248" y="704" type="curve" smooth="yes"/>
      <point x="1248" y="394"/>
      <point x="1068" y="140"/>
      <point x="868" y="140" type="curve" smooth="yes"/>
      <point x="710" y="140"/>
      <point x="568" y="252"/>
      <point x="568" y="460" type="curve" smooth="yes"/>
      <point x="568" y="760"/>
      <point x="798" y="1058"/>
      <point x="1036" y="1058" type="curve" smooth="yes"/>
      <point x="1198" y="1058"/>
      <point x="1248" y="868"/>
    </contour>
    <contour>
      <point x="1226" y="692" type="curve" smooth="yes"/>
      <point x="1226" y="776"/>
      <point x="1206" y="1020"/>
      <point x="1060" y="1020" type="curve" smooth="yes"/>
      <point x="912" y="1020"/>
      <point x="770" y="714"/>
      <point x="770" y="466" type="curve" smooth="yes"/>
      <point x="770" y="332"/>
      <point x="800" y="178"/>
      <point x="914" y="178" type="curve" smooth="yes"/>
      <point x="1056" y="178"/>
      <point x="1226" y="428"/>
    </contour>
    <contour>
      <point x="1180" y="420" type="curve" smooth="yes"/>
      <point x="1324" y="1040" type="line"/>
      <point x="1504" y="1040" type="line"/>
      <point x="1360" y="420" type="line" smooth="yes"/>
      <point x="1354" y="394"/>
      <point x="1266" y="170"/>
      <point x="1420" y="170" type="curve" smooth="yes"/>
      <point x="1684" y="170"/>
      <point x="1882" y="490"/>
      <point x="1882" y="802" type="curve" smooth="yes"/>
      <point x="1882" y="1158"/>
      <point x="1662" y="1552"/>
      <point x="1168" y="1552" type="curve" smooth="yes"/>
      <point x="602" y="1552"/>
      <point x="138" y="1034"/>
      <point x="138" y="422" type="curve" smooth="yes"/>
      <point x="138" y="-184"/>
      <point x="486" y="-400"/>
      <point x="838" y="-400" type="curve" smooth="yes"/>
      <point x="1164" y="-400"/>
      <point x="1374" y="-304"/>
      <point x="1550" y="-108" type="curve"/>
      <point x="1570" y="-128" type="line"/>
      <point x="1402" y="-324"/>
      <point x="1164" y="-428"/>
      <point x="838" y="-428" type="curve" smooth="yes"/>
      <point x="472" y="-428"/>
      <point x="110" y="-206"/>
      <point x="110" y="422" type="curve" smooth="yes"/>
      <point x="110" y="1048"/>
      <point x="584" y="1580"/>
      <point x="1170" y="1580" type="curve" smooth="yes"/>
      <point x="1676" y="1580"/>
      <point x="1910" y="1168"/>
      <point x="1910" y="802" type="curve" smooth="yes"/>
      <point x="1910" y="482"/>
      <point x="1724" y="136"/>
      <point x="1382" y="136" type="curve" smooth="yes"/>
      <point x="1204" y="136"/>
      <point x="1152" y="296"/>
    </contour>
  </outline>
</glyph>
<glyph name="A" format="2">
  <advance width="1449"/>
  <unicode hex="0041"/>
  <outline>
    <contour>
      <point x="-90" y="28" type="line"/>
      <point x="350" y="28" type="line"/>
      <point x="350" y="0" type="line"/>
      <point x="-90" y="0" type="line"/>
    </contour>
    <contour>
      <point x="730" y="28" type="line"/>
      <point x="1310" y="28" type="line"/>
      <point x="1310" y="0" type="line"/>
      <point x="730" y="0" type="line"/>
    </contour>
    <contour>
      <point x="372" y="504" type="line"/>
      <point x="1030" y="504" type="line"/>
      <point x="1030" y="476" type="line"/>
      <point x="372" y="476" type="line"/>
    </contour>
    <contour>
      <point x="832" y="1268" type="line"/>
      <point x="104" y="0" type="line"/>
      <point x="70" y="0" type="line"/>
      <point x="952" y="1530" type="line"/>
      <point x="980" y="1530" type="line"/>
      <point x="1170" y="0" type="line"/>
      <point x="960" y="0" type="line"/>
    </contour>
  </outline>
</glyph>
<glyph name="C" format="2">
  <advance width="1325"/>
  <unicode hex="0043"/>
  <outline>
    <contour>
      <point x="620" y="-20" type="curve" smooth="yes"/>
      <point x="314" y="-20"/>
      <point x="110" y="184"/>
      <point x="110" y="510" type="curve" smooth="yes"/>
      <point x="110" y="1056"/>
      <point x="514" y="1520"/>
      <point x="980" y="1520" type="curve" smooth="yes"/>
      <point x="1216" y="1520"/>
      <point x="1396" y="1376"/>
      <point x="1360" y="1090" type="curve"/>
      <point x="1332" y="1090" type="line"/>
      <point x="1368" y="1358"/>
      <point x="1188" y="1486"/>
      <point x="1000" y="1486" type="curve" smooth="yes"/>
      <point x="572" y="1486"/>
      <point x="330" y="854"/>
      <point x="330" y="390" type="curve" smooth="yes"/>
      <point x="330" y="186"/>
      <point x="432" y="14"/>
      <point x="640" y="14" type="curve" smooth="yes"/>
      <point x="908" y="14"/>
      <point x="1100" y="194"/>
      <point x="1192" y="410" type="curve"/>
      <point x="1220" y="410" type="line"/>
      <point x="1140" y="164"/>
      <point x="906" y="-20"/>
    </contour>
    <contour>
      <point x="1332" y="1090" type="line"/>
      <point x="1350" y="1184" type="line"/>
      <point x="1352" y="1216"/>
      <point x="1318" y="1332"/>
      <point x="1304" y="1354" type="curve"/>
      <point x="1436" y="1500" type="line"/>
      <point x="1456" y="1500" type="line"/>
      <point x="1360" y="1090" type="line"/>
    </contour>
    <contour>
      <point x="1192" y="410" type="line"/>
      <point x="1220" y="410" type="line"/>
      <point x="1110" y="0" type="line"/>
      <point x="1090" y="0" type="line"/>
      <point x="1040" y="140" type="line"/>
      <point x="1058" y="158"/>
      <point x="1148" y="270"/>
      <point x="1166" y="308" type="curve"/>
    </contour>
  </outline>
</glyph>
<glyph name="F" format="2">
  <advance width="1107"/>
  <unicode hex="0046"/>
  <outline>
    <contour>
      <point x="528" y="732" type="curve" smooth="yes"/>
      <point x="418" y="732" type="line"/>
      <point x="418" y="760" type="line"/>
      <point x="528" y="760" type="line" smooth="yes"/>
      <point x="700" y="760"/>
      <point x="796" y="812"/>
      <point x="822" y="946" type="curve"/>
      <point x="850" y="946" type="line"/>
      <point x="754" y="536" type="line"/>
      <point x="726" y="536" type="line"/>
      <point x="756" y="670"/>
      <point x="702" y="732"/>
    </contour>
    <contour>
      <point x="-90" y="28" type="line"/>
      <point x="470" y="28" type="line"/>
      <point x="470" y="0" type="line"/>
      <point x="-90" y="0" type="line"/>
    </contour>
    <contour>
      <point x="428" y="1500" type="line"/>
      <point x="618" y="1500" type="line"/>
      <point x="270" y="0" type="line"/>
      <point x="80" y="0" type="line"/>
    </contour>
    <contour>
      <point x="248" y="1500" type="line"/>
      <point x="1278" y="1500" type="line"/>
      <point x="1182" y="1090" type="line"/>
      <point x="1154" y="1090" type="line"/>
      <point x="1204" y="1304"/>
      <point x="1162" y="1472"/>
      <point x="928" y="1472" type="curve" smooth="yes"/>
      <point x="248" y="1472" type="line"/>
    </contour>
  </outline>
</glyph>
<glyph name="G" format="2">
  <advance width="1455"/>
  <unicode hex="0047"/>
  <outline>
    <contour>
      <point x="1086" y="564" type="line"/>
      <point x="1294" y="564" type="line"/>
      <point x="1234" y="330" type="line"/>
      <point x="1144" y="204"/>
      <point x="946" y="-20"/>
      <point x="620" y="-20" type="curve" smooth="yes"/>
      <point x="314" y="-20"/>
      <point x="110" y="184"/>
      <point x="110" y="510" type="curve" smooth="yes"/>
      <point x="110" y="1056"/>
      <point x="514" y="1520"/>
      <point x="980" y="1520" type="curve" smooth="yes"/>
      <point x="1216" y="1520"/>
      <point x="1396" y="1376"/>
      <point x="1360" y="1090" type="curve"/>
      <point x="1332" y="1090" type="line"/>
      <point x="1368" y="1360"/>
      <point x="1184" y="1482"/>
      <point x="1000" y="1482" type="curve" smooth="yes"/>
      <point x="572" y="1482"/>
      <point x="330" y="854"/>
      <point x="330" y="390" type="curve" smooth="yes"/>
      <point x="330" y="186"/>
      <point x="392" y="8"/>
      <point x="600" y="8" type="curve" smooth="yes"/>
      <point x="848" y="8"/>
      <point x="974" y="206"/>
      <point x="1004" y="250" type="curve"/>
    </contour>
    <contour>
      <point x="910" y="584" type="line"/>
      <point x="1450" y="584" type="line"/>
      <point x="1450" y="556" type="line"/>
      <point x="910" y="556" type="line"/>
    </contour>
    <contour>
      <point x="1436" y="1500" type="line"/>
      <point x="1456" y="1500" type="line"/>
      <point x="1360" y="1090" type="line"/>
      <point x="1332" y="1090" type="line"/>
      <point x="1352" y="1172" type="line"/>
      <point x="1354" y="1198"/>
      <point x="1318" y="1330"/>
      <point x="1304" y="1354" type="curve"/>
    </contour>
  </outline>
</glyph>
<glyph name="I" format="2">
  <advance width="699"/>
  <unicode hex="0049"/>
  <outline>
    <contour>
      <point x="-80" y="28" type="line"/>
      <point x="560" y="28" type="line"/>
      <point x="560" y="0" type="line"/>
      <point x="-80" y="0" type="line"/>
    </contour>
    <contour>
      <point x="250" y="1500" type="line"/>
      <point x="890" y="1500" type="line"/>
      <point x="890" y="1472" type="line"/>
      <point x="250" y="1472" type="line"/>
    </contour>
    <contour>
      <point x="480" y="1500" type="line"/>
      <point x="670" y="1500" type="line"/>
      <point x="330" y="0" type="line"/>
      <point x="140" y="0" type="line"/>
    </contour>
  </outline>
</glyph>
<glyph name="J" format="2">
  <advance width="841"/>
  <unicode hex="004A"/>
  <outline>
    <contour>
      <point x="372" y="1500" type="line"/>
      <point x="1032" y="1500" type="line"/>
      <point x="1032" y="1472" type="line"/>
      <point x="372" y="1472" type="line"/>
    </contour>
    <contour>
      <point x="-10" y="104" type="curve"/>
      <point x="2" y="50"/>
      <point x="52" y="-32"/>
      <point x="152" y="-32" type="curve" smooth="yes"/>
      <point x="274" y="-32"/>
      <point x="324" y="100"/>
      <point x="388" y="380" type="curve" smooth="yes"/>
      <point x="642" y="1500" type="line"/>
      <point x="832" y="1500" type="line"/>
      <point x="570" y="338" type="line"/>
      <point x="490" y="198"/>
      <point x="354" y="-60"/>
      <point x="152" y="-60" type="curve" smooth="yes"/>
      <point x="18" y="-60"/>
      <point x="-60" y="70"/>
      <point x="-60" y="170" type="curve" smooth="yes"/>
      <point x="-60" y="254"/>
      <point x="-6" y="300"/>
      <point x="54" y="300" type="curve" smooth="yes"/>
      <point x="104" y="300"/>
      <point x="166" y="264"/>
      <point x="166" y="182" type="curve" smooth="yes"/>
      <point x="166" y="104"/>
      <point x="110" y="66"/>
      <point x="48" y="66" type="curve" smooth="yes"/>
      <point x="20" y="66"/>
      <point x="-2" y="82"/>
    </contour>
  </outline>
</glyph>
<glyph name="K" format="2">
  <advance width="1343"/>
  <unicode hex="004B"/>
  <outline>
    <contour>
      <point x="-80" y="28" type="line"/>
      <point x="460" y="28" type="line"/>
      <point x="460" y="0" type="line"/>
      <point x="-80" y="0" type="line"/>
    </contour>
    <contour>
      <point x="250" y="1500" type="line"/>
      <point x="790" y="1500" type="line"/>
      <point x="790" y="1472" type="line"/>
      <point x="250" y="1472" type="line"/>
    </contour>
    <contour>
      <point x="430" y="1500" type="line"/>
      <point x="620" y="1500" type="line"/>
      <point x="280" y="0" type="line"/>
      <point x="90" y="0" type="line"/>
    </contour>
    <contour>
      <point x="288" y="434" type="line"/>
      <point x="240" y="434" type="line"/>
      <point x="1240" y="1498" type="line"/>
      <point x="1288" y="1498" type="line"/>
    </contour>
    <contour>
      <point x="594" y="28" type="line"/>
      <point x="1214" y="28" type="line"/>
      <point x="1214" y="0" type="line"/>
      <point x="594" y="0" type="line"/>
    </contour>
    <contour>
      <point x="1464" y="1472" type="line"/>
      <point x="984" y="1472" type="line"/>
      <point x="984" y="1500" type="line"/>
      <point x="1464" y="1500" type="line"/>
    </contour>
    <contour>
      <point x="1050" y="0" type="line"/>
      <point x="832" y="0" type="line"/>
      <point x="578" y="772" type="line"/>
      <point x="722" y="922" type="line"/>
    </contour>
  </outline>
</glyph>
<glyph name="M" format="2">
  <advance width="1669"/>
  <unicode hex="004D"/>
  <outline>
    <contour>
      <point x="1040" y="28" type="line"/>
      <point x="1530" y="28" type="line"/>
      <point x="1530" y="0" type="line"/>
      <point x="1040" y="0" type="line"/>
    </contour>
    <contour>
      <point x="1682" y="1472" type="line"/>
      <point x="1370" y="0" type="line"/>
      <point x="1180" y="0" type="line"/>
      <point x="1500" y="1500" type="line"/>
      <point x="1810" y="1500" type="line"/>
      <point x="1810" y="1472" type="line"/>
    </contour>
    <contour>
      <point x="798" y="262" type="line"/>
      <point x="1484" y="1500" type="line"/>
      <point x="1518" y="1500" type="line"/>
      <point x="676" y="-20" type="line"/>
      <point x="642" y="-20" type="line"/>
      <point x="406" y="1500" type="line"/>
      <point x="598" y="1500" type="line"/>
    </contour>
    <contour>
      <point x="396" y="1472" type="line"/>
      <point x="250" y="1472" type="line"/>
      <point x="250" y="1500" type="line"/>
      <point x="432" y="1500" type="line"/>
      <point x="114" y="0" type="line"/>
      <point x="84" y="0" type="line"/>
    </contour>
    <contour>
      <point x="-50" y="28" type="line"/>
      <point x="266" y="28" type="line"/>
      <point x="266" y="0" type="line"/>
      <point x="-50" y="0" type="line"/>
    </contour>
  </outline>
</glyph>
<glyph name="P" format="2">
  <advance width="2478"/>
  <unicode hex="0050"/>
  <outline>
    <contour>
      <point x="881" y="3072" type="line"/>
      <point x="1270" y="3072" type="line"/>
      <point x="553" y="0" type="line"/>
      <point x="164" y="0" type="line"/>
    </contour>
    <contour>
      <point x="-164" y="57" type="line"/>
      <point x="963" y="57" type="line"/>
      <point x="963" y="0" type="line"/>
      <point x="-164" y="0" type="line"/>
    </contour>
    <contour>
      <point x="1270" y="1364" type="curve" smooth="yes"/>
      <point x="819" y="1364" type="line"/>
      <point x="819" y="1421" type="line"/>
      <point x="1270" y="1421" type="line" smooth="yes"/>
      <point x="1827" y="1421"/>
      <point x="2150" y="1971"/>
      <point x="2150" y="2417" type="curve" smooth="yes"/>
      <point x="2150" y="2659"/>
      <point x="2072" y="3015"/>
      <point x="1679" y="3015" type="curve" smooth="yes"/>
      <point x="512" y="3015" type="line"/>
      <point x="512" y="3072" type="line"/>
      <point x="1679" y="3072" type="line" smooth="yes"/>
      <point x="2216" y="3072"/>
      <point x="2601" y="2868"/>
      <point x="2601" y="2376" type="curve" smooth="yes"/>
      <point x="2601" y="1762"/>
      <point x="2093" y="1364"/>
    </contour>
  </outline>
</glyph>
<glyph name="R" format="2">
  <advance width="1429"/>
  <unicode hex="0052"/>
  <outline>
    <contour>
      <point x="1300" y="24" type="line"/>
      <point x="1228" y="-4"/>
      <point x="1192" y="-10"/>
      <point x="1120" y="-10" type="curve" smooth="yes"/>
      <point x="654" y="-10"/>
      <point x="1152" y="756"/>
      <point x="660" y="756" type="curve" smooth="yes"/>
      <point x="430" y="756" type="line"/>
      <point x="430" y="770" type="line"/>
      <point x="700" y="770" type="line" smooth="yes"/>
      <point x="1386" y="770"/>
      <point x="946" y="26"/>
      <point x="1192" y="26" type="curve" smooth="yes"/>
      <point x="1234" y="26"/>
      <point x="1264" y="38"/>
      <point x="1292" y="50" type="curve"/>
    </contour>
    <contour>
      <point x="470" y="1500" type="line"/>
      <point x="660" y="1500" type="line"/>
      <point x="310" y="0" type="line"/>
      <point x="120" y="0" type="line"/>
    </contour>
    <contour>
      <point x="-80" y="28" type="line"/>
      <point x="530" y="28" type="line"/>
      <point x="530" y="0" type="line"/>
      <point x="-80" y="0" type="line"/>
    </contour>
    <contour>
      <point x="720" y="766" type="curve" smooth="yes"/>
      <point x="430" y="766" type="line"/>
      <point x="430" y="784" type="line"/>
      <point x="720" y="784" type="line" smooth="yes"/>
      <point x="992" y="784"/>
      <point x="1130" y="1022"/>
      <point x="1130" y="1220" type="curve" smooth="yes"/>
      <point x="1130" y="1318"/>
      <point x="1112" y="1472"/>
      <point x="920" y="1472" type="curve" smooth="yes"/>
      <point x="250" y="1472" type="line"/>
      <point x="250" y="1500" type="line"/>
      <point x="920" y="1500" type="line" smooth="yes"/>
      <point x="1182" y="1500"/>
      <point x="1350" y="1420"/>
      <point x="1350" y="1200" type="curve" smooth="yes"/>
      <point x="1350" y="920"/>
      <point x="1122" y="766"/>
    </contour>
  </outline>
</glyph>
<glyph name="S" format="2">
  <advance width="1111"/>
  <unicode hex="0053"/>
  <outline>
    <contour>
      <point x="1080" y="1206" type="line"/>
      <point x="1078" y="1230"/>
      <point x="1040" y="1344"/>
      <point x="1024" y="1372" type="curve"/>
      <point x="1162" y="1520" type="line"/>
      <point x="1182" y="1520" type="line"/>
      <point x="1092" y="1110" type="line"/>
      <point x="1064" y="1110" type="line"/>
    </contour>
    <contour>
      <point x="1092" y="1110" type="curve"/>
      <point x="1064" y="1110" type="line"/>
      <point x="1064" y="1342"/>
      <point x="946" y="1488"/>
      <point x="722" y="1488" type="curve" smooth="yes"/>
      <point x="570" y="1488"/>
      <point x="396" y="1382"/>
      <point x="396" y="1218" type="curve" smooth="yes"/>
      <point x="396" y="840"/>
      <point x="1006" y="980"/>
      <point x="1006" y="440" type="curve" smooth="yes"/>
      <point x="1006" y="160"/>
      <point x="748" y="-30"/>
      <point x="466" y="-30" type="curve" smooth="yes"/>
      <point x="154" y="-30"/>
      <point x="64" y="150"/>
      <point x="56" y="390" type="curve"/>
      <point x="84" y="390" type="line"/>
      <point x="86" y="178"/>
      <point x="178" y="0"/>
      <point x="454" y="0" type="curve" smooth="yes"/>
      <point x="666" y="0"/>
      <point x="846" y="124"/>
      <point x="846" y="322" type="curve" smooth="yes"/>
      <point x="846" y="740"/>
      <point x="236" y="630"/>
      <point x="236" y="1070" type="curve" smooth="yes"/>
      <point x="236" y="1370"/>
      <point x="528" y="1520"/>
      <point x="710" y="1520" type="curve" smooth="yes"/>
      <point x="966" y="1520"/>
      <point x="1092" y="1372"/>
    </contour>
    <contour>
      <point x="-20" y="-20" type="line"/>
      <point x="-40" y="-20" type="line"/>
      <point x="56" y="390" type="line"/>
      <point x="84" y="390" type="line"/>
      <point x="82" y="278" type="line"/>
      <point x="86" y="252"/>
      <point x="116" y="160"/>
      <point x="126" y="144" type="curve"/>
    </contour>
  </outline>
</glyph>
<glyph name="V" format="2">
  <advance width="2949"/>
  <unicode hex="0056"/>
  <outline>
    <contour>
      <point x="3359" y="3015" type="line"/>
      <point x="2458" y="3015" type="line"/>
      <point x="2458" y="3072" type="line"/>
      <point x="3359" y="3072" type="line"/>
    </contour>
    <contour>
      <point x="1679" y="3015" type="line"/>
      <point x="492" y="3015" type="line"/>
      <point x="492" y="3072" type="line"/>
      <point x="1679" y="3072" type="line"/>
    </contour>
    <contour>
      <point x="1470" y="475" type="line"/>
      <point x="2957" y="3072" type="line"/>
      <point x="3027" y="3072" type="line"/>
      <point x="1229" y="-61" type="line"/>
      <point x="1167" y="-61" type="line"/>
      <point x="778" y="3072" type="line"/>
      <point x="1208" y="3072" type="line"/>
    </contour>
  </outline>
</glyph>
<glyph name="W" format="2">
  <advance width="1925"/>
  <unicode hex="0057"/>
  <outline>
    <contour>
      <point x="704" y="274" type="line"/>
      <point x="1024" y="834" type="line"/>
      <point x="1056" y="834" type="line"/>
      <point x="570" y="-20" type="line"/>
      <point x="536" y="-20" type="line"/>
      <point x="424" y="1500" type="line"/>
      <point x="614" y="1500" type="line"/>
    </contour>
    <contour>
      <point x="1136" y="834" type="line"/>
      <point x="1104" y="834" type="line"/>
      <point x="1484" y="1500" type="line"/>
      <point x="1516" y="1500" type="line"/>
    </contour>
    <contour>
      <point x="2126" y="1472" type="line"/>
      <point x="1746" y="1472" type="line"/>
      <point x="1746" y="1500" type="line"/>
      <point x="2126" y="1500" type="line"/>
    </contour>
    <contour>
      <point x="1650" y="1472" type="line"/>
      <point x="240" y="1472" type="line"/>
      <point x="240" y="1500" type="line"/>
      <point x="1650" y="1500" type="line"/>
    </contour>
    <contour>
      <point x="1226" y="274" type="line"/>
      <point x="1926" y="1500" type="line"/>
      <point x="1958" y="1500" type="line"/>
      <point x="1092" y="-20" type="line"/>
      <point x="1058" y="-20" type="line"/>
      <point x="946" y="1500" type="line"/>
      <point x="1136" y="1500" type="line"/>
    </contour>
  </outline>
</glyph>
<glyph name="X" format="2">
  <advance width="1449"/>
  <unicode hex="0058"/>
  <outline>
    <contour>
      <point x="790" y="754" type="line"/>
      <point x="746" y="754" type="line"/>
      <point x="1346" y="1496" type="line"/>
      <point x="1384" y="1496" type="line"/>
    </contour>
    <contour>
      <point x="128" y="0" type="line"/>
      <point x="86" y="0" type="line"/>
      <point x="766" y="834" type="line"/>
      <point x="806" y="834" type="line"/>
    </contour>
    <contour>
      <point x="760" y="28" type="line"/>
      <point x="1320" y="28" type="line"/>
      <point x="1320" y="0" type="line"/>
      <point x="760" y="0" type="line"/>
    </contour>
    <contour>
      <point x="-100" y="28" type="line"/>
      <point x="380" y="28" type="line"/>
      <point x="380" y="0" type="line"/>
      <point x="-100" y="0" type="line"/>
    </contour>
    <contour>
      <point x="870" y="1472" type="line"/>
      <point x="310" y="1472" type="line"/>
      <point x="310" y="1500" type="line"/>
      <point x="870" y="1500" type="line"/>
    </contour>
    <contour>
      <point x="1570" y="1472" type="line"/>
      <point x="1130" y="1472" type="line"/>
      <point x="1130" y="1500" type="line"/>
      <point x="1570" y="1500" type="line"/>
    </contour>
    <contour>
      <point x="1182" y="0" type="line"/>
      <point x="952" y="0" type="line"/>
      <point x="450" y="1500" type="line"/>
      <point x="672" y="1500" type="line"/>
    </contour>
  </outline>
</glyph>
<glyph name="Y" format="2">
  <advance width="2969"/>
  <unicode hex="0059"/>
  <outline>
    <contour>
      <point x="3379" y="3015" type="line"/>
      <point x="2519" y="3015" type="line"/>
      <point x="2519" y="3072" type="line"/>
      <point x="3379" y="3072" type="line"/>
    </contour>
    <contour>
      <point x="1679" y="3015" type="line"/>
      <point x="492" y="3015" type="line"/>
      <point x="492" y="3072" type="line"/>
      <point x="1679" y="3072" type="line"/>
    </contour>
    <contour>
      <point x="676" y="57" type="line"/>
      <point x="1843" y="57" type="line"/>
      <point x="1843" y="0" type="line"/>
      <point x="676" y="0" type="line"/>
    </contour>
    <contour>
      <point x="1769" y="1610" type="line"/>
      <point x="2974" y="3064" type="line"/>
      <point x="3056" y="3064" type="line"/>
      <point x="1778" y="1520" type="line"/>
      <point x="1434" y="0" type="line"/>
      <point x="1044" y="0" type="line"/>
      <point x="1393" y="1544" type="line"/>
      <point x="778" y="3072" type="line"/>
      <point x="1229" y="3072" type="line"/>
    </contour>
  </outline>
</glyph>
<glyph name="Z" format="2">
  <advance width="1097"/>
  <unicode hex="005A"/>
  <outline>
    <contour>
      <point x="988" y="1472" type="line"/>
      <point x="628" y="1472" type="line" smooth="yes"/>
      <point x="354" y="1472"/>
      <point x="276" y="1374"/>
      <point x="226" y="1160" type="curve"/>
      <point x="198" y="1160" type="line"/>
      <point x="278" y="1500" type="line"/>
      <point x="1228" y="1500" type="line"/>
      <point x="1228" y="1472" type="line"/>
      <point x="140" y="28" type="line"/>
      <point x="560" y="28" type="line" smooth="yes"/>
      <point x="834" y="28"/>
      <point x="912" y="128"/>
      <point x="970" y="380" type="curve"/>
      <point x="998" y="380" type="line"/>
      <point x="910" y="0" type="line"/>
      <point x="-100" y="0" type="line"/>
      <point x="-100" y="28" type="line"/>
    </contour>
  </outline>
</glyph>
<glyph name="bracketleft" format="2">
  <advance width="669"/>
  <unicode hex="005B"/>
  <outline>
    <contour>
      <point x="400" y="1560" type="line"/>
      <point x="880" y="1560" type="line"/>
      <point x="880" y="1532" type="line"/>
      <point x="572" y="1532" type="line"/>
      <point x="168" y="-272" type="line"/>
      <point x="460" y="-272" type="line"/>
      <point x="460" y="-300" type="line"/>
      <point x="-20" y="-300" type="line"/>
    </contour>
  </outline>
</glyph>
<glyph name="asciicircum" format="2">
  <advance width="1089"/>
  <unicode hex="005E"/>
  <outline>
    <contour>
      <point x="816" y="1446" type="line"/>
      <point x="434" y="1246" type="line"/>
      <point x="420" y="1260" type="line"/>
      <point x="760" y="1540" type="line"/>
      <point x="890" y="1540" type="line"/>
      <point x="1110" y="1260" type="line"/>
      <point x="1096" y="1246" type="line"/>
    </contour>
  </outline>
</glyph>
<glyph name="a" format="2">
  <advance width="1211"/>
  <unicode hex="0061"/>
  <outline>
    <contour>
      <point x="756" y="628" type="curve" smooth="yes"/>
      <point x="756" y="774"/>
      <point x="696" y="880"/>
      <point x="606" y="880" type="curve" smooth="yes"/>
      <point x="418" y="880"/>
      <point x="244" y="548"/>
      <point x="244" y="280" type="curve" smooth="yes"/>
      <point x="244" y="124"/>
      <point x="292" y="24"/>
      <point x="394" y="24" type="curve" smooth="yes"/>
      <point x="616" y="24"/>
      <point x="756" y="412"/>
    </contour>
    <contour>
      <point x="778" y="628" type="curve" smooth="yes"/>
      <point x="778" y="412"/>
      <point x="636" y="-20"/>
      <point x="354" y="-20" type="curve" smooth="yes"/>
      <point x="216" y="-20"/>
      <point x="36" y="60"/>
      <point x="36" y="320" type="curve" smooth="yes"/>
      <point x="36" y="720"/>
      <point x="350" y="940"/>
      <point x="548" y="940" type="curve" smooth="yes"/>
      <point x="700" y="940"/>
      <point x="778" y="812"/>
    </contour>
    <contour>
      <point x="1166" y="326" type="line"/>
      <point x="1090" y="126"/>
      <point x="972" y="-20"/>
      <point x="810" y="-20" type="curve" smooth="yes"/>
      <point x="716" y="-20"/>
      <point x="668" y="26"/>
      <point x="668" y="126" type="curve" smooth="yes"/>
      <point x="668" y="136"/>
      <point x="670" y="158"/>
      <point x="672" y="170" type="curve" smooth="yes"/>
      <point x="716" y="364" type="line"/>
      <point x="760" y="518" type="line"/>
      <point x="772" y="618" type="line"/>
      <point x="842" y="920" type="line"/>
      <point x="1022" y="920" type="line"/>
      <point x="830" y="98" type="line" smooth="yes"/>
      <point x="828" y="86"/>
      <point x="826" y="72"/>
      <point x="826" y="62" type="curve" smooth="yes"/>
      <point x="826" y="40"/>
      <point x="836" y="24"/>
      <point x="862" y="24" type="curve" smooth="yes"/>
      <point x="972" y="24"/>
      <point x="1084" y="180"/>
      <point x="1140" y="334" type="curve"/>
    </contour>
  </outline>
</glyph>
<glyph name="b" format="2">
  <advance width="1127"/>
  <unicode hex="0062"/>
  <outline>
    <contour>
      <point x="418" y="1472" type="line"/>
      <point x="268" y="1472" type="line"/>
      <point x="268" y="1500" type="line"/>
      <point x="604" y="1500" type="line"/>
      <point x="324" y="280" type="line"/>
      <point x="324" y="132"/>
      <point x="360" y="4"/>
      <point x="482" y="4" type="curve" smooth="yes"/>
      <point x="690" y="4"/>
      <point x="854" y="390"/>
      <point x="854" y="658" type="curve" smooth="yes"/>
      <point x="854" y="806"/>
      <point x="806" y="894"/>
      <point x="704" y="894" type="curve" smooth="yes"/>
      <point x="552" y="894"/>
      <point x="418" y="696"/>
      <point x="364" y="460" type="curve"/>
      <point x="350" y="460" type="line"/>
      <point x="424" y="804"/>
      <point x="586" y="938"/>
      <point x="748" y="938" type="curve" smooth="yes"/>
      <point x="882" y="938"/>
      <point x="1062" y="876"/>
      <point x="1062" y="620" type="curve" smooth="yes"/>
      <point x="1062" y="200"/>
      <point x="776" y="-20"/>
      <point x="478" y="-20" type="curve" smooth="yes"/>
      <point x="276" y="-20"/>
      <point x="176" y="114"/>
      <point x="136" y="240" type="curve"/>
    </contour>
  </outline>
</glyph>
<glyph name="c" format="2">
  <advance width="939"/>
  <unicode hex="0063"/>
  <outline>
    <contour>
      <point x="858" y="742" type="curve"/>
      <point x="850" y="822"/>
      <point x="770" y="910"/>
      <point x="628" y="910" type="curve" smooth="yes"/>
      <point x="370" y="910"/>
      <point x="244" y="528"/>
      <point x="244" y="280" type="curve" smooth="yes"/>
      <point x="244" y="112"/>
      <point x="280" y="14"/>
      <point x="388" y="14" type="curve" smooth="yes"/>
      <point x="526" y="14"/>
      <point x="696" y="108"/>
      <point x="788" y="286" type="curve"/>
      <point x="814" y="286" type="line"/>
      <point x="722" y="92"/>
      <point x="536" y="-20"/>
      <point x="354" y="-20" type="curve" smooth="yes"/>
      <point x="212" y="-20"/>
      <point x="36" y="60"/>
      <point x="36" y="320" type="curve" smooth="yes"/>
      <point x="36" y="700"/>
      <point x="330" y="940"/>
      <point x="592" y="940" type="curve" smooth="yes"/>
      <point x="776" y="940"/>
      <point x="894" y="846"/>
      <point x="894" y="702" type="curve" smooth="yes"/>
      <point x="894" y="600"/>
      <point x="830" y="558"/>
      <point x="770" y="558" type="curve" smooth="yes"/>
      <point x="720" y="558"/>
      <point x="656" y="590"/>
      <point x="656" y="670" type="curve" smooth="yes"/>
      <point x="656" y="740"/>
      <point x="714" y="780"/>
      <point x="772" y="780" type="curve" smooth="yes"/>
      <point x="824" y="780"/>
      <point x="848" y="758"/>
    </contour>
  </outline>
</glyph>
<glyph name="d" format="2">
  <advance width="1211"/>
  <unicode hex="0064"/>
  <outline>
    <contour>
      <point x="1172" y="326" type="line"/>
      <point x="1096" y="126"/>
      <point x="978" y="-20"/>
      <point x="816" y="-20" type="curve" smooth="yes"/>
      <point x="722" y="-20"/>
      <point x="674" y="26"/>
      <point x="674" y="126" type="curve" smooth="yes"/>
      <point x="674" y="136"/>
      <point x="676" y="158"/>
      <point x="678" y="170" type="curve" smooth="yes"/>
      <point x="716" y="364" type="line"/>
      <point x="760" y="518" type="line"/>
      <point x="772" y="618" type="line"/>
      <point x="962" y="1472" type="line"/>
      <point x="780" y="1472" type="line"/>
      <point x="780" y="1500" type="line"/>
      <point x="1146" y="1500" type="line"/>
      <point x="838" y="98" type="line" smooth="yes"/>
      <point x="836" y="86"/>
      <point x="834" y="72"/>
      <point x="834" y="62" type="curve" smooth="yes"/>
      <point x="834" y="40"/>
      <point x="844" y="24"/>
      <point x="870" y="24" type="curve" smooth="yes"/>
      <point x="980" y="24"/>
      <point x="1090" y="180"/>
      <point x="1146" y="334" type="curve"/>
    </contour>
    <contour>
      <point x="756" y="628" type="curve" smooth="yes"/>
      <point x="756" y="774"/>
      <point x="696" y="880"/>
      <point x="606" y="880" type="curve" smooth="yes"/>
      <point x="418" y="880"/>
      <point x="244" y="548"/>
      <point x="244" y="280" type="curve" smooth="yes"/>
      <point x="244" y="124"/>
      <point x="292" y="24"/>
      <point x="394" y="24" type="curve" smooth="yes"/>
      <point x="616" y="24"/>
      <point x="756" y="412"/>
    </contour>
    <contour>
      <point x="778" y="628" type="curve" smooth="yes"/>
      <point x="778" y="412"/>
      <point x="636" y="-20"/>
      <point x="354" y="-20" type="curve" smooth="yes"/>
      <point x="216" y="-20"/>
      <point x="36" y="60"/>
      <point x="36" y="320" type="curve" smooth="yes"/>
      <point x="36" y="720"/>
      <point x="350" y="940"/>
      <point x="548" y="940" type="curve" smooth="yes"/>
      <point x="700" y="940"/>
      <point x="778" y="812"/>
    </contour>
  </outline>
</glyph>
<glyph name="e" format="2">
  <advance width="939"/>
  <unicode hex="0065"/>
  <outline>
    <contour>
      <point x="244" y="280" type="curve" smooth="yes"/>
      <point x="244" y="132"/>
      <point x="270" y="16"/>
      <point x="388" y="16" type="curve" smooth="yes"/>
      <point x="568" y="16"/>
      <point x="712" y="144"/>
      <point x="788" y="286" type="curve"/>
      <point x="814" y="286" type="line"/>
      <point x="736" y="132"/>
      <point x="576" y="-20"/>
      <point x="354" y="-20" type="curve" smooth="yes"/>
      <point x="192" y="-20"/>
      <point x="36" y="80"/>
      <point x="36" y="320" type="curve" smooth="yes"/>
      <point x="36" y="706"/>
      <point x="336" y="940"/>
      <point x="598" y="940" type="curve" smooth="yes"/>
      <point x="782" y="940"/>
      <point x="904" y="888"/>
      <point x="904" y="744" type="curve" smooth="yes"/>
      <point x="904" y="430"/>
      <point x="428" y="430"/>
      <point x="206" y="430" type="curve"/>
      <point x="206" y="458" type="line"/>
      <point x="424" y="458"/>
      <point x="712" y="476"/>
      <point x="712" y="744" type="curve" smooth="yes"/>
      <point x="712" y="838"/>
      <point x="690" y="916"/>
      <point x="618" y="916" type="curve" smooth="yes"/>
      <point x="440" y="916"/>
      <point x="244" y="608"/>
    </contour>
  </outline>
</glyph>
<glyph name="f" format="2">
  <advance width="683"/>
  <unicode hex="0066"/>
  <outline>
    <contour>
      <point x="110" y="920" type="line"/>
      <point x="750" y="920" type="line"/>
      <point x="750" y="892" type="line"/>
      <point x="110" y="892" type="line"/>
    </contour>
    <contour>
      <point x="950" y="1390" type="curve"/>
      <point x="936" y="1430"/>
      <point x="890" y="1492"/>
      <point x="772" y="1492" type="curve" smooth="yes"/>
      <point x="632" y="1492"/>
      <point x="534" y="1324"/>
      <point x="490" y="1080" type="curve" smooth="yes"/>
      <point x="288" y="-24" type="line" smooth="yes"/>
      <point x="242" y="-274"/>
      <point x="78" y="-520"/>
      <point x="-182" y="-520" type="curve" smooth="yes"/>
      <point x="-344" y="-520"/>
      <point x="-408" y="-406"/>
      <point x="-408" y="-322" type="curve" smooth="yes"/>
      <point x="-408" y="-240"/>
      <point x="-354" y="-198"/>
      <point x="-294" y="-198" type="curve" smooth="yes"/>
      <point x="-244" y="-198"/>
      <point x="-182" y="-226"/>
      <point x="-182" y="-306" type="curve" smooth="yes"/>
      <point x="-182" y="-386"/>
      <point x="-244" y="-418"/>
      <point x="-302" y="-418" type="curve" smooth="yes"/>
      <point x="-330" y="-418"/>
      <point x="-352" y="-404"/>
      <point x="-358" y="-390" type="curve"/>
      <point x="-344" y="-430"/>
      <point x="-300" y="-492"/>
      <point x="-182" y="-492" type="curve" smooth="yes"/>
      <point x="-42" y="-492"/>
      <point x="58" y="-324"/>
      <point x="100" y="-80" type="curve" smooth="yes"/>
      <point x="296" y="1024" type="line" smooth="yes"/>
      <point x="340" y="1276"/>
      <point x="512" y="1520"/>
      <point x="772" y="1520" type="curve" smooth="yes"/>
      <point x="934" y="1520"/>
      <point x="998" y="1406"/>
      <point x="998" y="1322" type="curve" smooth="yes"/>
      <point x="998" y="1240"/>
      <point x="944" y="1198"/>
      <point x="884" y="1198" type="curve" smooth="yes"/>
      <point x="834" y="1198"/>
      <point x="772" y="1226"/>
      <point x="772" y="1306" type="curve" smooth="yes"/>
      <point x="772" y="1386"/>
      <point x="834" y="1418"/>
      <point x="892" y="1418" type="curve" smooth="yes"/>
      <point x="920" y="1418"/>
      <point x="944" y="1402"/>
    </contour>
  </outline>
</glyph>
<glyph name="g" format="2">
  <advance width="1115"/>
  <unicode hex="0067"/>
  <outline>
    <contour>
      <point x="268" y="-6" type="line"/>
      <point x="178" y="-36"/>
      <point x="106" y="-160"/>
      <point x="106" y="-284" type="curve" smooth="yes"/>
      <point x="106" y="-400"/>
      <point x="144" y="-488"/>
      <point x="296" y="-488" type="curve" smooth="yes"/>
      <point x="494" y="-488"/>
      <point x="704" y="-372"/>
      <point x="704" y="-174" type="curve" smooth="yes"/>
      <point x="704" y="-66"/>
      <point x="650" y="-18"/>
      <point x="540" y="-18" type="curve" smooth="yes"/>
      <point x="498" y="-18"/>
      <point x="442" y="-18"/>
      <point x="398" y="-18" type="curve" smooth="yes"/>
      <point x="218" y="-18"/>
      <point x="72" y="-6"/>
      <point x="72" y="118" type="curve" smooth="yes"/>
      <point x="72" y="266"/>
      <point x="286" y="344"/>
      <point x="460" y="344" type="curve"/>
      <point x="458" y="330" type="line"/>
      <point x="392" y="330"/>
      <point x="216" y="300"/>
      <point x="216" y="200" type="curve" smooth="yes"/>
      <point x="216" y="146"/>
      <point x="320" y="138"/>
      <point x="430" y="138" type="curve" smooth="yes"/>
      <point x="500" y="138"/>
      <point x="516" y="140"/>
      <point x="572" y="140" type="curve" smooth="yes"/>
      <point x="722" y="140"/>
      <point x="806" y="88"/>
      <point x="806" y="-84" type="curve" smooth="yes"/>
      <point x="806" y="-326"/>
      <point x="566" y="-520"/>
      <point x="286" y="-520" type="curve" smooth="yes"/>
      <point x="60" y="-520"/>
      <point x="-84" y="-460"/>
      <point x="-84" y="-310" type="curve" smooth="yes"/>
      <point x="-84" y="-108"/>
      <point x="164" y="-6"/>
      <point x="254" y="-6" type="curve" smooth="yes"/>
    </contour>
    <contour>
      <point x="1150" y="788" type="curve" smooth="yes"/>
      <point x="1150" y="698"/>
      <point x="1098" y="668"/>
      <point x="1048" y="668" type="curve" smooth="yes"/>
      <point x="998" y="668"/>
      <point x="948" y="702"/>
      <point x="948" y="768" type="curve" smooth="yes"/>
      <point x="948" y="824"/>
      <point x="992" y="862"/>
      <point x="1048" y="862" type="curve" smooth="yes"/>
      <point x="1082" y="862"/>
      <point x="1104" y="840"/>
      <point x="1110" y="828" type="curve"/>
      <point x="1094" y="880"/>
      <point x="1050" y="902"/>
      <point x="992" y="902" type="curve" smooth="yes"/>
      <point x="916" y="902"/>
      <point x="804" y="832"/>
      <point x="726" y="678" type="curve"/>
      <point x="702" y="694" type="line"/>
      <point x="782" y="856"/>
      <point x="912" y="930"/>
      <point x="992" y="930" type="curve" smooth="yes"/>
      <point x="1094" y="930"/>
      <point x="1150" y="864"/>
    </contour>
    <contour>
      <point x="404" y="348" type="curve" smooth="yes"/>
      <point x="582" y="348"/>
      <point x="662" y="602"/>
      <point x="662" y="750" type="curve" smooth="yes"/>
      <point x="662" y="838"/>
      <point x="622" y="912"/>
      <point x="544" y="912" type="curve" smooth="yes"/>
      <point x="366" y="912"/>
      <point x="286" y="658"/>
      <point x="286" y="510" type="curve" smooth="yes"/>
      <point x="286" y="422"/>
      <point x="326" y="348"/>
    </contour>
    <contour>
      <point x="404" y="320" type="curve" smooth="yes"/>
      <point x="242" y="320"/>
      <point x="108" y="390"/>
      <point x="108" y="570" type="curve" smooth="yes"/>
      <point x="108" y="790"/>
      <point x="322" y="940"/>
      <point x="544" y="940" type="curve" smooth="yes"/>
      <point x="706" y="940"/>
      <point x="840" y="870"/>
      <point x="840" y="690" type="curve" smooth="yes"/>
      <point x="840" y="470"/>
      <point x="626" y="320"/>
    </contour>
  </outline>
</glyph>
<glyph name="h" format="2">
  <advance width="1151"/>
  <unicode hex="0068"/>
  <outline>
    <contour>
      <point x="760" y="616" type="line" smooth="yes"/>
      <point x="812" y="770"/>
      <point x="804" y="896"/>
      <point x="712" y="896" type="curve" smooth="yes"/>
      <point x="574" y="896"/>
      <point x="374" y="652"/>
      <point x="304" y="346" type="curve"/>
      <point x="284" y="346" type="line"/>
      <point x="354" y="650"/>
      <point x="536" y="940"/>
      <point x="762" y="940" type="curve" smooth="yes"/>
      <point x="956" y="940"/>
      <point x="998" y="798"/>
      <point x="946" y="638" type="curve" smooth="yes"/>
      <point x="770" y="98" type="line" smooth="yes"/>
      <point x="766" y="86"/>
      <point x="764" y="72"/>
      <point x="764" y="62" type="curve" smooth="yes"/>
      <point x="764" y="40"/>
      <point x="776" y="24"/>
      <point x="802" y="24" type="curve" smooth="yes"/>
      <point x="914" y="24"/>
      <point x="1024" y="180"/>
      <point x="1080" y="334" type="curve"/>
      <point x="1106" y="326" type="line"/>
      <point x="1030" y="126"/>
      <point x="912" y="-20"/>
      <point x="750" y="-20" type="curve" smooth="yes"/>
      <point x="656" y="-20"/>
      <point x="604" y="30"/>
      <point x="604" y="116" type="curve" smooth="yes"/>
      <point x="604" y="146"/>
      <point x="610" y="170"/>
      <point x="614" y="184" type="curve" smooth="yes"/>
    </contour>
    <contour>
      <point x="380" y="1472" type="line"/>
      <point x="246" y="1472" type="line"/>
      <point x="246" y="1500" type="line"/>
      <point x="566" y="1500" type="line"/>
      <point x="226" y="0" type="line"/>
      <point x="46" y="0" type="line"/>
    </contour>
  </outline>
</glyph>
<glyph name="i" format="2">
  <advance width="687"/>
  <unicode hex="0069"/>
  <outline>
    <contour>
      <point x="320" y="1400" type="curve" smooth="yes"/>
      <point x="320" y="1466"/>
      <point x="374" y="1520"/>
      <point x="440" y="1520" type="curve" smooth="yes"/>
      <point x="506" y="1520"/>
      <point x="560" y="1466"/>
      <point x="560" y="1400" type="curve" smooth="yes"/>
      <point x="560" y="1334"/>
      <point x="506" y="1280"/>
      <point x="440" y="1280" type="curve" smooth="yes"/>
      <point x="374" y="1280"/>
      <point x="320" y="1334"/>
    </contour>
    <contour>
      <point x="604" y="326" type="line"/>
      <point x="528" y="126"/>
      <point x="410" y="-20"/>
      <point x="248" y="-20" type="curve" smooth="yes"/>
      <point x="154" y="-20"/>
      <point x="106" y="26"/>
      <point x="106" y="126" type="curve" smooth="yes"/>
      <point x="106" y="136"/>
      <point x="108" y="158"/>
      <point x="110" y="170" type="curve" smooth="yes"/>
      <point x="274" y="892" type="line"/>
      <point x="136" y="892" type="line"/>
      <point x="136" y="920" type="line"/>
      <point x="460" y="920" type="line"/>
      <point x="268" y="98" type="line" smooth="yes"/>
      <point x="266" y="86"/>
      <point x="264" y="72"/>
      <point x="264" y="62" type="curve" smooth="yes"/>
      <point x="264" y="40"/>
      <point x="274" y="24"/>
      <point x="300" y="24" type="curve" smooth="yes"/>
      <point x="412" y="24"/>
      <point x="522" y="180"/>
      <point x="578" y="334" type="curve"/>
    </contour>
  </outline>
</glyph>
<glyph name="j" format="2">
  <advance width="535"/>
  <unicode hex="006A"/>
  <outline>
    <contour>
      <point x="340" y="1400" type="curve" smooth="yes"/>
      <point x="340" y="1466"/>
      <point x="394" y="1520"/>
      <point x="460" y="1520" type="curve" smooth="yes"/>
      <point x="526" y="1520"/>
      <point x="580" y="1466"/>
      <point x="580" y="1400" type="curve" smooth="yes"/>
      <point x="580" y="1334"/>
      <point x="526" y="1280"/>
      <point x="460" y="1280" type="curve" smooth="yes"/>
      <point x="394" y="1280"/>
      <point x="340" y="1334"/>
    </contour>
    <contour>
      <point x="-304" y="-366" type="curve"/>
      <point x="-286" y="-430"/>
      <point x="-226" y="-492"/>
      <point x="-148" y="-492" type="curve" smooth="yes"/>
      <point x="32" y="-492"/>
      <point x="40" y="-200"/>
      <point x="96" y="40" type="curve" smooth="yes"/>
      <point x="296" y="892" type="line"/>
      <point x="112" y="892" type="line"/>
      <point x="112" y="920" type="line"/>
      <point x="472" y="920" type="line"/>
      <point x="276" y="-24" type="line" smooth="yes"/>
      <point x="224" y="-274"/>
      <point x="122" y="-520"/>
      <point x="-138" y="-520" type="curve" smooth="yes"/>
      <point x="-280" y="-520"/>
      <point x="-344" y="-386"/>
      <point x="-344" y="-312" type="curve" smooth="yes"/>
      <point x="-344" y="-230"/>
      <point x="-280" y="-178"/>
      <point x="-220" y="-178" type="curve" smooth="yes"/>
      <point x="-170" y="-178"/>
      <point x="-118" y="-212"/>
      <point x="-118" y="-286" type="curve" smooth="yes"/>
      <point x="-118" y="-360"/>
      <point x="-178" y="-398"/>
      <point x="-242" y="-398" type="curve" smooth="yes"/>
      <point x="-266" y="-398"/>
      <point x="-292" y="-384"/>
    </contour>
  </outline>
</glyph>
<glyph name="k" format="2">
  <advance width="2285"/>
  <unicode hex="006B"/>
  <outline>
    <contour>
      <point x="2191" y="668" type="line"/>
      <point x="2035" y="258"/>
      <point x="1794" y="-41"/>
      <point x="1462" y="-41" type="curve" smooth="yes"/>
      <point x="1269" y="-41"/>
      <point x="1184" y="53"/>
      <point x="1184" y="258" type="curve" smooth="yes"/>
      <point x="1184" y="278"/>
      <point x="1188" y="323"/>
      <point x="1192" y="348" type="curve" smooth="yes"/>
      <point x="1241" y="573" type="line" smooth="yes"/>
      <point x="1294" y="811"/>
      <point x="1438" y="1135"/>
      <point x="1135" y="1135" type="curve" smooth="yes"/>
      <point x="844" y="1135"/>
      <point x="782" y="917"/>
      <point x="745" y="778" type="curve"/>
      <point x="705" y="778" type="line"/>
      <point x="791" y="1151"/>
      <point x="995" y="1184"/>
      <point x="1163" y="1184" type="curve" smooth="yes"/>
      <point x="1446" y="1184"/>
      <point x="1700" y="1028"/>
      <point x="1577" y="496" type="curve" smooth="yes"/>
      <point x="1495" y="152" type="line" smooth="yes"/>
      <point x="1495" y="144"/>
      <point x="1491" y="123"/>
      <point x="1491" y="115" type="curve" smooth="yes"/>
      <point x="1491" y="70"/>
      <point x="1520" y="49"/>
      <point x="1573" y="49" type="curve" smooth="yes"/>
      <point x="1798" y="49"/>
      <point x="2023" y="369"/>
      <point x="2138" y="684" type="curve"/>
    </contour>
    <contour>
      <point x="838" y="1028" type="curve"/>
      <point x="875" y="1066" type="line"/>
      <point x="897" y="1050"/>
      <point x="940" y="1044"/>
      <point x="983" y="1044" type="curve" smooth="yes"/>
      <point x="1163" y="1044"/>
      <point x="1242" y="1217"/>
      <point x="1348" y="1479" type="curve" smooth="yes"/>
      <point x="1463" y="1758"/>
      <point x="1601" y="1925"/>
      <point x="1806" y="1925" type="curve" smooth="yes"/>
      <point x="1990" y="1925"/>
      <point x="2130" y="1806"/>
      <point x="2130" y="1593" type="curve" smooth="yes"/>
      <point x="2130" y="1409"/>
      <point x="2023" y="1348"/>
      <point x="1921" y="1348" type="curve" smooth="yes"/>
      <point x="1819" y="1348"/>
      <point x="1716" y="1417"/>
      <point x="1716" y="1552" type="curve" smooth="yes"/>
      <point x="1716" y="1667"/>
      <point x="1798" y="1745"/>
      <point x="1913" y="1745" type="curve" smooth="yes"/>
      <point x="1987" y="1745"/>
      <point x="2028" y="1704"/>
      <point x="2044" y="1675" type="curve"/>
      <point x="2028" y="1802"/>
      <point x="1930" y="1868"/>
      <point x="1815" y="1868" type="curve" smooth="yes"/>
      <point x="1631" y="1868"/>
      <point x="1520" y="1732"/>
      <point x="1409" y="1462" type="curve" smooth="yes"/>
      <point x="1298" y="1183"/>
      <point x="1188" y="991"/>
      <point x="983" y="991" type="curve" smooth="yes"/>
      <point x="925" y="991"/>
      <point x="858" y="1005"/>
    </contour>
    <contour>
      <point x="897" y="3015" type="line"/>
      <point x="541" y="3015" type="line"/>
      <point x="541" y="3072" type="line"/>
      <point x="1278" y="3072" type="line"/>
      <point x="565" y="0" type="line"/>
      <point x="197" y="0" type="line"/>
    </contour>
  </outline>
</glyph>
<glyph name="l" format="2">
  <advance width="629"/>
  <unicode hex="006C"/>
  <outline>
    <contour>
      <point x="584" y="326" type="line"/>
      <point x="508" y="126"/>
      <point x="390" y="-20"/>
      <point x="228" y="-20" type="curve" smooth="yes"/>
      <point x="134" y="-20"/>
      <point x="86" y="26"/>
      <point x="86" y="126" type="curve" smooth="yes"/>
      <point x="86" y="136"/>
      <point x="88" y="158"/>
      <point x="90" y="170" type="curve" smooth="yes"/>
      <point x="390" y="1472" type="line"/>
      <point x="208" y="1472" type="line"/>
      <point x="208" y="1500" type="line"/>
      <point x="574" y="1500" type="line"/>
      <point x="248" y="98" type="line" smooth="yes"/>
      <point x="246" y="86"/>
      <point x="244" y="72"/>
      <point x="244" y="62" type="curve" smooth="yes"/>
      <point x="244" y="40"/>
      <point x="254" y="24"/>
      <point x="280" y="24" type="curve" smooth="yes"/>
      <point x="394" y="24"/>
      <point x="504" y="186"/>
      <point x="558" y="334" type="curve"/>
    </contour>
  </outline>
</glyph>
<glyph name="m" format="2">
  <advance width="1689"/>
  <unicode hex="006D"/>
  <outline>
    <contour>
      <point x="1298" y="616" type="line" smooth="yes"/>
      <point x="1350" y="770"/>
      <point x="1354" y="896"/>
      <point x="1262" y="896" type="curve" smooth="yes"/>
      <point x="1124" y="896"/>
      <point x="936" y="652"/>
      <point x="860" y="346" type="curve"/>
      <point x="840" y="346" type="line"/>
      <point x="916" y="650"/>
      <point x="1086" y="940"/>
      <point x="1312" y="940" type="curve" smooth="yes"/>
      <point x="1506" y="940"/>
      <point x="1536" y="798"/>
      <point x="1484" y="638" type="curve" smooth="yes"/>
      <point x="1308" y="98" type="line" smooth="yes"/>
      <point x="1304" y="86"/>
      <point x="1302" y="72"/>
      <point x="1302" y="62" type="curve" smooth="yes"/>
      <point x="1302" y="40"/>
      <point x="1314" y="24"/>
      <point x="1340" y="24" type="curve" smooth="yes"/>
      <point x="1456" y="24"/>
      <point x="1564" y="184"/>
      <point x="1618" y="334" type="curve"/>
      <point x="1644" y="326" type="line"/>
      <point x="1568" y="126"/>
      <point x="1450" y="-20"/>
      <point x="1288" y="-20" type="curve" smooth="yes"/>
      <point x="1194" y="-20"/>
      <point x="1142" y="30"/>
      <point x="1142" y="116" type="curve" smooth="yes"/>
      <point x="1142" y="146"/>
      <point x="1148" y="170"/>
      <point x="1152" y="184" type="curve" smooth="yes"/>
    </contour>
    <contour>
      <point x="776" y="0" type="line"/>
      <point x="596" y="0" type="line"/>
      <point x="746" y="616" type="line" smooth="yes"/>
      <point x="784" y="774"/>
      <point x="802" y="896"/>
      <point x="710" y="896" type="curve" smooth="yes"/>
      <point x="574" y="896"/>
      <point x="384" y="660"/>
      <point x="308" y="346" type="curve"/>
      <point x="288" y="346" type="line"/>
      <point x="362" y="648"/>
      <point x="534" y="940"/>
      <point x="760" y="940" type="curve" smooth="yes"/>
      <point x="954" y="940"/>
      <point x="972" y="800"/>
      <point x="932" y="638" type="curve" smooth="yes"/>
    </contour>
    <contour>
      <point x="260" y="892" type="line"/>
      <point x="126" y="892" type="line"/>
      <point x="126" y="920" type="line"/>
      <point x="446" y="920" type="line"/>
      <point x="226" y="0" type="line"/>
      <point x="46" y="0" type="line"/>
    </contour>
  </outline>
</glyph>
<glyph name="n" format="2">
  <advance width="1161"/>
  <unicode hex="006E"/>
  <outline>
    <contour>
      <point x="260" y="892" type="line"/>
      <point x="126" y="892" type="line"/>
      <point x="126" y="920" type="line"/>
      <point x="446" y="920" type="line"/>
      <point x="226" y="0" type="line"/>
      <point x="46" y="0" type="line"/>
    </contour>
    <contour>
      <point x="766" y="616" type="line" smooth="yes"/>
      <point x="818" y="770"/>
      <point x="810" y="896"/>
      <point x="718" y="896" type="curve" smooth="yes"/>
      <point x="580" y="896"/>
      <point x="382" y="652"/>
      <point x="308" y="346" type="curve"/>
      <point x="288" y="346" type="line"/>
      <point x="362" y="650"/>
      <point x="542" y="940"/>
      <point x="768" y="940" type="curve" smooth="yes"/>
      <point x="962" y="940"/>
      <point x="1004" y="798"/>
      <point x="952" y="638" type="curve" smooth="yes"/>
      <point x="776" y="98" type="line" smooth="yes"/>
      <point x="772" y="86"/>
      <point x="770" y="72"/>
      <point x="770" y="62" type="curve" smooth="yes"/>
      <point x="770" y="40"/>
      <point x="782" y="24"/>
      <point x="808" y="24" type="curve" smooth="yes"/>
      <point x="920" y="24"/>
      <point x="1034" y="180"/>
      <point x="1090" y="334" type="curve"/>
      <point x="1116" y="326" type="line"/>
      <point x="1040" y="126"/>
      <point x="918" y="-20"/>
      <point x="756" y="-20" type="curve" smooth="yes"/>
      <point x="662" y="-20"/>
      <point x="610" y="30"/>
      <point x="610" y="116" type="curve" smooth="yes"/>
      <point x="610" y="146"/>
      <point x="614" y="168"/>
      <point x="620" y="184" type="curve" smooth="yes"/>
    </contour>
  </outline>
</glyph>
<glyph name="o" format="2">
  <advance width="1055"/>
  <unicode hex="006F"/>
  <outline>
    <contour>
      <point x="394" y="-20" type="curve" smooth="yes"/>
      <point x="212" y="-20"/>
      <point x="36" y="60"/>
      <point x="36" y="320" type="curve" smooth="yes"/>
      <point x="36" y="700"/>
      <point x="330" y="940"/>
      <point x="632" y="940" type="curve" smooth="yes"/>
      <point x="814" y="940"/>
      <point x="990" y="860"/>
      <point x="990" y="600" type="curve" smooth="yes"/>
      <point x="990" y="220"/>
      <point x="696" y="-20"/>
    </contour>
    <contour>
      <point x="394" y="10" type="curve" smooth="yes"/>
      <point x="652" y="10"/>
      <point x="782" y="392"/>
      <point x="782" y="640" type="curve" smooth="yes"/>
      <point x="782" y="808"/>
      <point x="740" y="910"/>
      <point x="632" y="910" type="curve" smooth="yes"/>
      <point x="374" y="910"/>
      <point x="244" y="528"/>
      <point x="244" y="280" type="curve" smooth="yes"/>
      <point x="244" y="112"/>
      <point x="286" y="10"/>
    </contour>
  </outline>
</glyph>
<glyph name="p" format="2">
  <advance width="1111"/>
  <unicode hex="0070"/>
  <outline>
    <contour>
      <point x="334" y="290" type="curve" smooth="yes"/>
      <point x="334" y="144"/>
      <point x="394" y="40"/>
      <point x="484" y="40" type="curve" smooth="yes"/>
      <point x="672" y="40"/>
      <point x="848" y="370"/>
      <point x="848" y="638" type="curve" smooth="yes"/>
      <point x="848" y="794"/>
      <point x="798" y="894"/>
      <point x="696" y="894" type="curve" smooth="yes"/>
      <point x="474" y="894"/>
      <point x="334" y="506"/>
    </contour>
    <contour>
      <point x="312" y="290" type="curve" smooth="yes"/>
      <point x="312" y="506"/>
      <point x="454" y="940"/>
      <point x="736" y="940" type="curve" smooth="yes"/>
      <point x="874" y="940"/>
      <point x="1056" y="858"/>
      <point x="1056" y="598" type="curve" smooth="yes"/>
      <point x="1056" y="198"/>
      <point x="740" y="-20"/>
      <point x="542" y="-20" type="curve" smooth="yes"/>
      <point x="390" y="-20"/>
      <point x="312" y="106"/>
    </contour>
    <contour>
      <point x="-184" y="-472" type="line"/>
      <point x="266" y="-472" type="line"/>
      <point x="266" y="-500" type="line"/>
      <point x="-184" y="-500" type="line"/>
    </contour>
    <contour>
      <point x="268" y="892" type="line"/>
      <point x="130" y="892" type="line"/>
      <point x="130" y="920" type="line"/>
      <point x="454" y="920" type="line"/>
      <point x="376" y="584" type="line"/>
      <point x="334" y="440" type="line"/>
      <point x="322" y="334" type="line"/>
      <point x="126" y="-500" type="line"/>
      <point x="-54" y="-500" type="line"/>
    </contour>
  </outline>
</glyph>
<glyph name="q" format="2">
  <advance width="1101"/>
  <unicode hex="0071"/>
  <outline>
    <contour>
      <point x="834" y="-472" type="line"/>
      <point x="834" y="-500" type="line"/>
      <point x="384" y="-500" type="line"/>
      <point x="384" y="-472" type="line"/>
    </contour>
    <contour>
      <point x="694" y="-500" type="line"/>
      <point x="514" y="-500" type="line"/>
      <point x="716" y="364" type="line"/>
      <point x="734" y="412"/>
      <point x="747" y="467"/>
      <point x="760" y="524" type="curve"/>
      <point x="772" y="620" type="line"/>
      <point x="838" y="900" type="line"/>
      <point x="1026" y="940" type="line"/>
    </contour>
    <contour>
      <point x="756" y="628" type="curve" smooth="yes"/>
      <point x="756" y="774"/>
      <point x="696" y="880"/>
      <point x="606" y="880" type="curve" smooth="yes"/>
      <point x="418" y="880"/>
      <point x="244" y="548"/>
      <point x="244" y="280" type="curve" smooth="yes"/>
      <point x="244" y="124"/>
      <point x="292" y="24"/>
      <point x="394" y="24" type="curve" smooth="yes"/>
      <point x="616" y="24"/>
      <point x="756" y="412"/>
    </contour>
    <contour>
      <point x="778" y="628" type="curve" smooth="yes"/>
      <point x="778" y="412"/>
      <point x="636" y="-20"/>
      <point x="354" y="-20" type="curve" smooth="yes"/>
      <point x="216" y="-20"/>
      <point x="36" y="60"/>
      <point x="36" y="320" type="curve" smooth="yes"/>
      <point x="36" y="720"/>
      <point x="350" y="940"/>
      <point x="548" y="940" type="curve" smooth="yes"/>
      <point x="700" y="940"/>
      <point x="778" y="812"/>
    </contour>
  </outline>
</glyph>
<glyph name="r" format="2">
  <advance width="801"/>
  <unicode hex="0072"/>
  <outline>
    <contour>
      <point x="846" y="778" type="curve" smooth="yes"/>
      <point x="846" y="710"/>
      <point x="806" y="656"/>
      <point x="730" y="656" type="curve" smooth="yes"/>
      <point x="664" y="656"/>
      <point x="612" y="692"/>
      <point x="612" y="766" type="curve" smooth="yes"/>
      <point x="612" y="836"/>
      <point x="668" y="882"/>
      <point x="726" y="882" type="curve" smooth="yes"/>
      <point x="750" y="882"/>
      <point x="784" y="870"/>
      <point x="794" y="852" type="curve"/>
      <point x="778" y="888"/>
      <point x="714" y="916"/>
      <point x="662" y="916" type="curve" smooth="yes"/>
      <point x="464" y="916"/>
      <point x="362" y="542"/>
      <point x="314" y="346" type="curve"/>
      <point x="294" y="346" type="line"/>
      <point x="344" y="590"/>
      <point x="458" y="940"/>
      <point x="662" y="940" type="curve" smooth="yes"/>
      <point x="754" y="940"/>
      <point x="846" y="876"/>
    </contour>
    <contour>
      <point x="270" y="892" type="line"/>
      <point x="126" y="892" type="line"/>
      <point x="126" y="920" type="line"/>
      <point x="446" y="920" type="line"/>
      <point x="236" y="0" type="line"/>
      <point x="56" y="0" type="line"/>
    </contour>
  </outline>
</glyph>
<glyph name="s" format="2">
  <advance width="795"/>
  <unicode hex="0073"/>
  <outline>
    <contour>
      <point x="656" y="798" type="curve"/>
      <point x="634" y="854"/>
      <point x="552" y="910"/>
      <point x="434" y="910" type="curve" smooth="yes"/>
      <point x="328" y="910"/>
      <point x="240" y="856"/>
      <point x="240" y="764" type="curve" smooth="yes"/>
      <point x="240" y="556"/>
      <point x="670" y="550"/>
      <point x="670" y="284" type="curve" smooth="yes"/>
      <point x="670" y="96"/>
      <point x="490" y="-24"/>
      <point x="296" y="-24" type="curve" smooth="yes"/>
      <point x="98" y="-24"/>
      <point x="-4" y="100"/>
      <point x="-4" y="210" type="curve" smooth="yes"/>
      <point x="-4" y="292"/>
      <point x="60" y="334"/>
      <point x="120" y="334" type="curve" smooth="yes"/>
      <point x="170" y="334"/>
      <point x="234" y="302"/>
      <point x="234" y="222" type="curve" smooth="yes"/>
      <point x="234" y="152"/>
      <point x="178" y="112"/>
      <point x="120" y="112" type="curve" smooth="yes"/>
      <point x="66" y="112"/>
      <point x="48" y="142"/>
      <point x="40" y="158" type="curve"/>
      <point x="56" y="90"/>
      <point x="124" y="4"/>
      <point x="296" y="4" type="curve" smooth="yes"/>
      <point x="436" y="4"/>
      <point x="524" y="98"/>
      <point x="524" y="188" type="curve" smooth="yes"/>
      <point x="524" y="390"/>
      <point x="108" y="362"/>
      <point x="108" y="654" type="curve" smooth="yes"/>
      <point x="108" y="852"/>
      <point x="288" y="938"/>
      <point x="434" y="938" type="curve" smooth="yes"/>
      <point x="590" y="938"/>
      <point x="700" y="844"/>
      <point x="700" y="750" type="curve" smooth="yes"/>
      <point x="700" y="668"/>
      <point x="650" y="636"/>
      <point x="590" y="636" type="curve" smooth="yes"/>
      <point x="540" y="636"/>
      <point x="486" y="668"/>
      <point x="486" y="738" type="curve" smooth="yes"/>
      <point x="486" y="798"/>
      <point x="536" y="838"/>
      <point x="582" y="838" type="curve" smooth="yes"/>
      <point x="632" y="838"/>
      <point x="646" y="814"/>
    </contour>
  </outline>
</glyph>
<glyph name="t" format="2">
  <advance width="641"/>
  <unicode hex="0074"/>
  <outline>
    <contour>
      <point x="78" y="920" type="line"/>
      <point x="618" y="920" type="line"/>
      <point x="618" y="892" type="line"/>
      <point x="78" y="892" type="line"/>
    </contour>
    <contour>
      <point x="594" y="326" type="line"/>
      <point x="518" y="126"/>
      <point x="400" y="-20"/>
      <point x="238" y="-20" type="curve" smooth="yes"/>
      <point x="144" y="-20"/>
      <point x="96" y="26"/>
      <point x="96" y="126" type="curve" smooth="yes"/>
      <point x="96" y="136"/>
      <point x="98" y="158"/>
      <point x="100" y="170" type="curve" smooth="yes"/>
      <point x="296" y="1120" type="line"/>
      <point x="474" y="1120" type="line"/>
      <point x="258" y="98" type="line" smooth="yes"/>
      <point x="256" y="86"/>
      <point x="254" y="72"/>
      <point x="254" y="62" type="curve" smooth="yes"/>
      <point x="254" y="40"/>
      <point x="264" y="24"/>
      <point x="290" y="24" type="curve" smooth="yes"/>
      <point x="402" y="24"/>
      <point x="510" y="180"/>
      <point x="566" y="334" type="curve"/>
    </contour>
  </outline>
</glyph>
<glyph name="u" format="2">
  <advance width="1225"/>
  <unicode hex="0075"/>
  <outline>
    <contour>
      <point x="456" y="920" type="line"/>
      <point x="308" y="290" type="line" smooth="yes"/>
      <point x="272" y="132"/>
      <point x="276" y="26"/>
      <point x="368" y="26" type="curve" smooth="yes"/>
      <point x="498" y="26"/>
      <point x="700" y="260"/>
      <point x="778" y="574" type="curve"/>
      <point x="800" y="574" type="line"/>
      <point x="724" y="270"/>
      <point x="540" y="-20"/>
      <point x="314" y="-20" type="curve" smooth="yes"/>
      <point x="120" y="-20"/>
      <point x="94" y="118"/>
      <point x="130" y="282" type="curve" smooth="yes"/>
      <point x="268" y="892" type="line"/>
      <point x="132" y="892" type="line"/>
      <point x="132" y="920" type="line"/>
    </contour>
    <contour>
      <point x="1180" y="326" type="line"/>
      <point x="1104" y="126"/>
      <point x="986" y="-20"/>
      <point x="824" y="-20" type="curve" smooth="yes"/>
      <point x="730" y="-20"/>
      <point x="682" y="26"/>
      <point x="682" y="126" type="curve" smooth="yes"/>
      <point x="682" y="136"/>
      <point x="684" y="158"/>
      <point x="686" y="170" type="curve" smooth="yes"/>
      <point x="854" y="920" type="line"/>
      <point x="1036" y="920" type="line"/>
      <point x="844" y="98" type="line" smooth="yes"/>
      <point x="842" y="86"/>
      <point x="840" y="72"/>
      <point x="840" y="62" type="curve" smooth="yes"/>
      <point x="840" y="40"/>
      <point x="850" y="24"/>
      <point x="876" y="24" type="curve" smooth="yes"/>
      <point x="992" y="24"/>
      <point x="1100" y="186"/>
      <point x="1154" y="334" type="curve"/>
    </contour>
  </outline>
</glyph>
<glyph name="v" format="2">
  <advance width="1063"/>
  <unicode hex="0076"/>
  <outline>
    <contour>
      <point x="444" y="270" type="line" smooth="yes"/>
      <point x="418" y="112"/>
      <point x="394" y="20"/>
      <point x="506" y="20" type="curve" smooth="yes"/>
      <point x="680" y="20"/>
      <point x="1002" y="382"/>
      <point x="1002" y="688" type="curve" smooth="yes"/>
      <point x="1002" y="756"/>
      <point x="990" y="798"/>
      <point x="978" y="822" type="curve"/>
      <point x="974" y="784"/>
      <point x="942" y="710"/>
      <point x="866" y="710" type="curve" smooth="yes"/>
      <point x="782" y="710"/>
      <point x="750" y="774"/>
      <point x="750" y="824" type="curve" smooth="yes"/>
      <point x="750" y="884"/>
      <point x="798" y="938"/>
      <point x="872" y="938" type="curve" smooth="yes"/>
      <point x="998" y="938"/>
      <point x="1028" y="810"/>
      <point x="1028" y="688" type="curve" smooth="yes"/>
      <point x="1028" y="384"/>
      <point x="716" y="-20"/>
      <point x="470" y="-20" type="curve" smooth="yes"/>
      <point x="276" y="-20"/>
      <point x="230" y="98"/>
      <point x="260" y="262" type="curve" smooth="yes"/>
      <point x="362" y="822" type="line" smooth="yes"/>
      <point x="364" y="834"/>
      <point x="366" y="848"/>
      <point x="366" y="858" type="curve" smooth="yes"/>
      <point x="366" y="880"/>
      <point x="354" y="896"/>
      <point x="328" y="896" type="curve" smooth="yes"/>
      <point x="216" y="896"/>
      <point x="106" y="732"/>
      <point x="54" y="586" type="curve"/>
      <point x="26" y="594" type="line"/>
      <point x="102" y="794"/>
      <point x="220" y="940"/>
      <point x="382" y="940" type="curve" smooth="yes"/>
      <point x="476" y="940"/>
      <point x="528" y="890"/>
      <point x="528" y="804" type="curve" smooth="yes"/>
      <point x="528" y="774"/>
      <point x="522" y="750"/>
      <point x="520" y="736" type="curve" smooth="yes"/>
    </contour>
  </outline>
</glyph>
<glyph name="w" format="2">
  <advance width="1609"/>
  <unicode hex="0077"/>
  <outline>
    <contour>
      <point x="368" y="290" type="line" smooth="yes"/>
      <point x="316" y="136"/>
      <point x="332" y="26"/>
      <point x="424" y="26" type="curve" smooth="yes"/>
      <point x="562" y="26"/>
      <point x="758" y="268"/>
      <point x="834" y="574" type="curve"/>
      <point x="856" y="574" type="line"/>
      <point x="780" y="270"/>
      <point x="596" y="-20"/>
      <point x="370" y="-20" type="curve" smooth="yes"/>
      <point x="176" y="-20"/>
      <point x="134" y="122"/>
      <point x="186" y="282" type="curve" smooth="yes"/>
      <point x="364" y="822" type="line" smooth="yes"/>
      <point x="368" y="834"/>
      <point x="370" y="848"/>
      <point x="370" y="858" type="curve" smooth="yes"/>
      <point x="370" y="880"/>
      <point x="358" y="896"/>
      <point x="332" y="896" type="curve" smooth="yes"/>
      <point x="216" y="896"/>
      <point x="108" y="734"/>
      <point x="54" y="586" type="curve"/>
      <point x="26" y="594" type="line"/>
      <point x="102" y="794"/>
      <point x="220" y="940"/>
      <point x="382" y="940" type="curve" smooth="yes"/>
      <point x="476" y="940"/>
      <point x="528" y="890"/>
      <point x="528" y="804" type="curve" smooth="yes"/>
      <point x="528" y="774"/>
      <point x="522" y="750"/>
      <point x="518" y="736" type="curve" smooth="yes"/>
    </contour>
    <contour>
      <point x="916" y="920" type="line"/>
      <point x="1096" y="920" type="line"/>
      <point x="964" y="364" type="line" smooth="yes"/>
      <point x="924" y="196"/>
      <point x="932" y="16"/>
      <point x="1100" y="16" type="curve" smooth="yes"/>
      <point x="1386" y="16"/>
      <point x="1546" y="458"/>
      <point x="1546" y="688" type="curve" smooth="yes"/>
      <point x="1546" y="748"/>
      <point x="1538" y="794"/>
      <point x="1528" y="814" type="curve"/>
      <point x="1524" y="760"/>
      <point x="1478" y="710"/>
      <point x="1408" y="710" type="curve" smooth="yes"/>
      <point x="1328" y="710"/>
      <point x="1294" y="774"/>
      <point x="1294" y="824" type="curve" smooth="yes"/>
      <point x="1294" y="884"/>
      <point x="1342" y="938"/>
      <point x="1416" y="938" type="curve" smooth="yes"/>
      <point x="1542" y="938"/>
      <point x="1574" y="810"/>
      <point x="1574" y="688" type="curve" smooth="yes"/>
      <point x="1574" y="468"/>
      <point x="1434" y="-20"/>
      <point x="1064" y="-20" type="curve" smooth="yes"/>
      <point x="886" y="-20"/>
      <point x="756" y="84"/>
      <point x="794" y="406" type="curve"/>
    </contour>
  </outline>
</glyph>
<glyph name="x" format="2">
  <advance width="1045"/>
  <unicode hex="0078"/>
  <outline>
    <contour>
      <point x="512" y="488" type="line"/>
      <point x="632" y="684"/>
      <point x="740" y="940"/>
      <point x="898" y="940" type="curve" smooth="yes"/>
      <point x="1020" y="940"/>
      <point x="1060" y="852"/>
      <point x="1060" y="788" type="curve" smooth="yes"/>
      <point x="1060" y="716"/>
      <point x="1020" y="668"/>
      <point x="944" y="668" type="curve" smooth="yes"/>
      <point x="864" y="668"/>
      <point x="834" y="732"/>
      <point x="834" y="782" type="curve" smooth="yes"/>
      <point x="834" y="836"/>
      <point x="876" y="892"/>
      <point x="938" y="892" type="curve" smooth="yes"/>
      <point x="966" y="892"/>
      <point x="988" y="880"/>
      <point x="1000" y="862" type="curve"/>
      <point x="982" y="886"/>
      <point x="960" y="914"/>
      <point x="908" y="914" type="curve" smooth="yes"/>
      <point x="756" y="914"/>
      <point x="656" y="664"/>
      <point x="540" y="474" type="curve"/>
    </contour>
    <contour>
      <point x="558" y="550" type="line"/>
      <point x="394" y="274"/>
      <point x="256" y="-20"/>
      <point x="98" y="-20" type="curve" smooth="yes"/>
      <point x="-24" y="-20"/>
      <point x="-64" y="68"/>
      <point x="-64" y="132" type="curve" smooth="yes"/>
      <point x="-64" y="204"/>
      <point x="-24" y="252"/>
      <point x="52" y="252" type="curve" smooth="yes"/>
      <point x="132" y="252"/>
      <point x="162" y="188"/>
      <point x="162" y="138" type="curve" smooth="yes"/>
      <point x="162" y="84"/>
      <point x="120" y="28"/>
      <point x="56" y="28" type="curve" smooth="yes"/>
      <point x="26" y="28"/>
      <point x="6" y="44"/>
      <point x="-4" y="62" type="curve"/>
      <point x="18" y="24"/>
      <point x="46" y="6"/>
      <point x="90" y="6" type="curve" smooth="yes"/>
      <point x="240" y="6"/>
      <point x="372" y="294"/>
      <point x="532" y="564" type="curve"/>
    </contour>
    <contour>
      <point x="958" y="218" type="line"/>
      <point x="892" y="38"/>
      <point x="802" y="-20"/>
      <point x="698" y="-20" type="curve" smooth="yes"/>
      <point x="584" y="-20"/>
      <point x="522" y="50"/>
      <point x="496" y="146" type="curve" smooth="yes"/>
      <point x="450" y="318"/>
      <point x="362" y="702"/>
      <point x="310" y="846" type="curve" smooth="yes"/>
      <point x="302" y="868"/>
      <point x="292" y="894"/>
      <point x="256" y="894" type="curve" smooth="yes"/>
      <point x="194" y="894"/>
      <point x="130" y="806"/>
      <point x="88" y="686" type="curve"/>
      <point x="62" y="698" type="line"/>
      <point x="128" y="878"/>
      <point x="204" y="944"/>
      <point x="328" y="944" type="curve" smooth="yes"/>
      <point x="442" y="944"/>
      <point x="496" y="874"/>
      <point x="522" y="778" type="curve" smooth="yes"/>
      <point x="570" y="598"/>
      <point x="640" y="278"/>
      <point x="710" y="84" type="curve" smooth="yes"/>
      <point x="718" y="62"/>
      <point x="744" y="36"/>
      <point x="770" y="36" type="curve" smooth="yes"/>
      <point x="816" y="36"/>
      <point x="888" y="102"/>
      <point x="934" y="228" type="curve"/>
    </contour>
  </outline>
</glyph>
<glyph name="y" format="2">
  <advance width="1121"/>
  <unicode hex="0079"/>
  <outline>
    <contour>
      <point x="646" y="-116" type="curve"/>
      <point x="500" y="136"/>
      <point x="362" y="698"/>
      <point x="308" y="842" type="curve" smooth="yes"/>
      <point x="300" y="864"/>
      <point x="290" y="890"/>
      <point x="254" y="890" type="curve" smooth="yes"/>
      <point x="192" y="890"/>
      <point x="124" y="798"/>
      <point x="86" y="682" type="curve"/>
      <point x="60" y="694" type="line"/>
      <point x="126" y="874"/>
      <point x="202" y="940"/>
      <point x="326" y="940" type="curve" smooth="yes"/>
      <point x="440" y="940"/>
      <point x="494" y="868"/>
      <point x="522" y="772" type="curve" smooth="yes"/>
      <point x="576" y="592"/>
      <point x="646" y="258"/>
      <point x="776" y="64" type="curve"/>
      <point x="735" y="6"/>
      <point x="692" y="-53"/>
    </contour>
    <contour>
      <point x="114" y="-520" type="curve" smooth="yes"/>
      <point x="-20" y="-520"/>
      <point x="-106" y="-432"/>
      <point x="-106" y="-302" type="curve" smooth="yes"/>
      <point x="-106" y="-236"/>
      <point x="-58" y="-170"/>
      <point x="18" y="-170" type="curve" smooth="yes"/>
      <point x="68" y="-170"/>
      <point x="130" y="-202"/>
      <point x="130" y="-278" type="curve" smooth="yes"/>
      <point x="130" y="-344"/>
      <point x="82" y="-386"/>
      <point x="28" y="-386" type="curve" smooth="yes"/>
      <point x="-24" y="-386"/>
      <point x="-58" y="-364"/>
      <point x="-72" y="-328" type="curve"/>
      <point x="-72" y="-412"/>
      <point x="0" y="-492"/>
      <point x="114" y="-492" type="curve" smooth="yes"/>
      <point x="466" y="-492"/>
      <point x="1066" y="500"/>
      <point x="1066" y="730" type="curve" smooth="yes"/>
      <point x="1066" y="772"/>
      <point x="1054" y="820"/>
      <point x="1040" y="844" type="curve"/>
      <point x="1050" y="774"/>
      <point x="992" y="712"/>
      <point x="928" y="712" type="curve" smooth="yes"/>
      <point x="848" y="712"/>
      <point x="814" y="776"/>
      <point x="814" y="826" type="curve" smooth="yes"/>
      <point x="814" y="886"/>
      <point x="864" y="940"/>
      <point x="938" y="940" type="curve" smooth="yes"/>
      <point x="1060" y="940"/>
      <point x="1096" y="814"/>
      <point x="1096" y="732" type="curve" smooth="yes"/>
      <point x="1096" y="472"/>
      <point x="484" y="-520"/>
    </contour>
  </outline>
</glyph>
<glyph name="z" format="2">
  <advance width="783"/>
  <unicode hex="007A"/>
  <outline>
    <contour>
      <point x="50" y="560" type="line"/>
      <point x="134" y="920" type="line"/>
      <point x="242" y="860"/>
      <point x="362" y="842"/>
      <point x="454" y="842" type="curve" smooth="yes"/>
      <point x="550" y="842"/>
      <point x="714" y="854"/>
      <point x="778" y="918" type="curve"/>
      <point x="804" y="890" type="line"/>
      <point x="618" y="762"/>
      <point x="494" y="690"/>
      <point x="354" y="690" type="curve" smooth="yes"/>
      <point x="266" y="690"/>
      <point x="182" y="720"/>
      <point x="130" y="764" type="curve"/>
      <point x="78" y="560" type="line"/>
    </contour>
    <contour>
      <point x="-46" y="18" type="line"/>
      <point x="-98" y="6" type="line"/>
      <point x="752" y="878" type="line"/>
      <point x="804" y="890" type="line"/>
    </contour>
    <contour>
      <point x="714" y="286" type="curve"/>
      <point x="700" y="256"/>
      <point x="676" y="232"/>
      <point x="628" y="232" type="curve" smooth="yes"/>
      <point x="580" y="232"/>
      <point x="530" y="272"/>
      <point x="530" y="332" type="curve" smooth="yes"/>
      <point x="530" y="402"/>
      <point x="584" y="434"/>
      <point x="634" y="434" type="curve" smooth="yes"/>
      <point x="694" y="434"/>
      <point x="744" y="402"/>
      <point x="744" y="320" type="curve" smooth="yes"/>
      <point x="744" y="220"/>
      <point x="634" y="-20"/>
      <point x="470" y="-20" type="curve" smooth="yes"/>
      <point x="348" y="-20"/>
      <point x="302" y="78"/>
      <point x="170" y="78" type="curve" smooth="yes"/>
      <point x="74" y="78"/>
      <point x="-8" y="44"/>
      <point x="-72" y="-20" type="curve"/>
      <point x="-98" y="6" type="line"/>
      <point x="82" y="126"/>
      <point x="190" y="190"/>
      <point x="330" y="190" type="curve" smooth="yes"/>
      <point x="438" y="190"/>
      <point x="482" y="104"/>
      <point x="584" y="104" type="curve" smooth="yes"/>
      <point x="672" y="104"/>
      <point x="710" y="240"/>
    </contour>
  </outline>
</glyph>
<glyph name="braceleft" format="2">
  <advance width="543"/>
  <unicode hex="007B"/>
  <outline>
    <contour>
      <point x="764" y="1560" type="curve"/>
      <point x="764" y="1532" type="line"/>
      <point x="580" y="1532"/>
      <point x="490" y="1362"/>
      <point x="490" y="1222" type="curve" smooth="yes"/>
      <point x="490" y="1110"/>
      <point x="508" y="1062"/>
      <point x="508" y="902" type="curve" smooth="yes"/>
      <point x="508" y="736"/>
      <point x="318" y="644"/>
      <point x="170" y="624" type="curve"/>
      <point x="170" y="644" type="line"/>
      <point x="230" y="664"/>
      <point x="340" y="712"/>
      <point x="340" y="814" type="curve" smooth="yes"/>
      <point x="340" y="920"/>
      <point x="304" y="968"/>
      <point x="304" y="1142" type="curve" smooth="yes"/>
      <point x="304" y="1380"/>
      <point x="434" y="1560"/>
    </contour>
    <contour>
      <point x="344" y="-300" type="line"/>
      <point x="94" y="-300"/>
      <point x="10" y="-238"/>
      <point x="10" y="-80" type="curve" smooth="yes"/>
      <point x="10" y="154"/>
      <point x="270" y="364"/>
      <point x="270" y="490" type="curve" smooth="yes"/>
      <point x="270" y="572"/>
      <point x="230" y="596"/>
      <point x="170" y="616" type="curve"/>
      <point x="170" y="638" type="line"/>
      <point x="318" y="618"/>
      <point x="384" y="566"/>
      <point x="384" y="440" type="curve" smooth="yes"/>
      <point x="384" y="240"/>
      <point x="196" y="60"/>
      <point x="196" y="-92" type="curve" smooth="yes"/>
      <point x="196" y="-186"/>
      <point x="220" y="-272"/>
      <point x="344" y="-272" type="curve"/>
    </contour>
  </outline>
</glyph>
<glyph name="asciitilde" format="2">
  <advance width="1375"/>
  <unicode hex="007E"/>
  <outline>
    <contour>
      <point x="558" y="874" type="curve" smooth="yes"/>
      <point x="444" y="874"/>
      <point x="368" y="830"/>
      <point x="328" y="686" type="curve"/>
      <point x="300" y="686" type="line"/>
      <point x="340" y="916"/>
      <point x="460" y="1020"/>
      <point x="618" y="1020" type="curve" smooth="yes"/>
      <point x="838" y="1020"/>
      <point x="858" y="832"/>
      <point x="1038" y="832" type="curve" smooth="yes"/>
      <point x="1172" y="832"/>
      <point x="1248" y="876"/>
      <point x="1288" y="1020" type="curve"/>
      <point x="1316" y="1020" type="line"/>
      <point x="1276" y="790"/>
      <point x="1156" y="686"/>
      <point x="998" y="686" type="curve" smooth="yes"/>
      <point x="764" y="686"/>
      <point x="712" y="874"/>
    </contour>
  </outline>
</glyph>
<glyph name="cent" format="2">
  <advance width="939"/>
  <unicode hex="00A2"/>
  <outline>
    <contour>
      <point x="680" y="1110" type="line"/>
      <point x="340" y="-170" type="line"/>
      <point x="312" y="-170" type="line"/>
      <point x="652" y="1110" type="line"/>
    </contour>
    <component base="c"/>
  </outline>
</glyph>
<glyph name="sterling" format="2">
  <advance width="1250"/>
  <unicode hex="00A3"/>
  <outline>
    <contour>
      <point x="1184" y="314" type="line"/>
      <point x="1144" y="24"/>
      <point x="962" y="-60"/>
      <point x="784" y="-60" type="curve" smooth="yes"/>
      <point x="510" y="-60"/>
      <point x="420" y="60"/>
      <point x="294" y="60" type="curve" smooth="yes"/>
      <point x="212" y="60"/>
      <point x="132" y="20"/>
      <point x="92" y="-40" type="curve"/>
      <point x="76" y="-40" type="line"/>
      <point x="136" y="108"/>
      <point x="250" y="194"/>
      <point x="424" y="194" type="curve" smooth="yes"/>
      <point x="624" y="194"/>
      <point x="644" y="126"/>
      <point x="810" y="126" type="curve" smooth="yes"/>
      <point x="950" y="126"/>
      <point x="1116" y="150"/>
      <point x="1156" y="314" type="curve"/>
    </contour>
    <contour>
      <point x="1030" y="810" type="line"/>
      <point x="1030" y="782" type="line"/>
      <point x="130" y="782" type="line"/>
      <point x="130" y="810" type="line"/>
    </contour>
    <contour>
      <point x="396" y="1020" type="curve" smooth="yes"/>
      <point x="396" y="1320"/>
      <point x="646" y="1520"/>
      <point x="1008" y="1520" type="curve" smooth="yes"/>
      <point x="1272" y="1520"/>
      <point x="1404" y="1356"/>
      <point x="1404" y="1192" type="curve" smooth="yes"/>
      <point x="1404" y="1110"/>
      <point x="1346" y="1068"/>
      <point x="1286" y="1068" type="curve" smooth="yes"/>
      <point x="1236" y="1068"/>
      <point x="1172" y="1100"/>
      <point x="1172" y="1180" type="curve" smooth="yes"/>
      <point x="1172" y="1250"/>
      <point x="1228" y="1290"/>
      <point x="1286" y="1290" type="curve" smooth="yes"/>
      <point x="1322" y="1290"/>
      <point x="1354" y="1268"/>
      <point x="1362" y="1252" type="curve"/>
      <point x="1362" y="1338"/>
      <point x="1250" y="1492"/>
      <point x="1028" y="1492" type="curve" smooth="yes"/>
      <point x="750" y="1492"/>
      <point x="618" y="1248"/>
      <point x="618" y="1100" type="curve" smooth="yes"/>
      <point x="618" y="962"/>
      <point x="660" y="870"/>
      <point x="660" y="700" type="curve" smooth="yes"/>
      <point x="660" y="320"/>
      <point x="66" y="270"/>
      <point x="92" y="-40" type="curve"/>
      <point x="64" y="-40" type="line"/>
      <point x="26" y="238"/>
      <point x="458" y="394"/>
      <point x="458" y="622" type="curve" smooth="yes"/>
      <point x="458" y="730"/>
      <point x="396" y="850"/>
    </contour>
  </outline>
</glyph>
<glyph name="brokenbar" format="2">
  <advance width="439"/>
  <unicode hex="00A6"/>
  <outline>
    <contour>
      <point x="204" y="332" type="line"/>
      <point x="230" y="332" type="line"/>
      <point x="38" y="-500" type="line"/>
      <point x="12" y="-500" type="line"/>
    </contour>
    <contour>
      <point x="488" y="1560" type="line"/>
      <point x="514" y="1560" type="line"/>
      <point x="342" y="818" type="line"/>
      <point x="316" y="818" type="line"/>
    </contour>
  </outline>
</glyph>
<glyph name="section" format="2">
  <advance width="947"/>
  <unicode hex="00A7"/>
  <outline>
    <contour>
      <point x="402" y="1268" type="curve" smooth="yes"/>
      <point x="402" y="1056"/>
      <point x="916" y="1106"/>
      <point x="916" y="800" type="curve" smooth="yes"/>
      <point x="916" y="636"/>
      <point x="750" y="580"/>
      <point x="642" y="508" type="curve"/>
      <point x="622" y="516" type="line"/>
      <point x="678" y="560"/>
      <point x="752" y="626"/>
      <point x="752" y="706" type="curve" smooth="yes"/>
      <point x="752" y="928"/>
      <point x="286" y="852"/>
      <point x="286" y="1196" type="curve" smooth="yes"/>
      <point x="286" y="1404"/>
      <point x="486" y="1520"/>
      <point x="676" y="1520" type="curve" smooth="yes"/>
      <point x="872" y="1520"/>
      <point x="984" y="1384"/>
      <point x="984" y="1252" type="curve" smooth="yes"/>
      <point x="984" y="1130"/>
      <point x="934" y="1080"/>
      <point x="864" y="1080" type="curve" smooth="yes"/>
      <point x="804" y="1080"/>
      <point x="756" y="1120"/>
      <point x="756" y="1192" type="curve" smooth="yes"/>
      <point x="756" y="1256"/>
      <point x="812" y="1302"/>
      <point x="870" y="1302" type="curve" smooth="yes"/>
      <point x="906" y="1302"/>
      <point x="944" y="1278"/>
      <point x="952" y="1272" type="curve"/>
      <point x="952" y="1360"/>
      <point x="876" y="1492"/>
      <point x="676" y="1492" type="curve" smooth="yes"/>
      <point x="530" y="1492"/>
      <point x="402" y="1402"/>
    </contour>
    <contour>
      <point x="800" y="324" type="curve" smooth="yes"/>
      <point x="800" y="116"/>
      <point x="600" y="-20"/>
      <point x="370" y="-20" type="curve" smooth="yes"/>
      <point x="194" y="-20"/>
      <point x="22" y="70"/>
      <point x="22" y="262" type="curve" smooth="yes"/>
      <point x="22" y="344"/>
      <point x="82" y="426"/>
      <point x="162" y="426" type="curve" smooth="yes"/>
      <point x="222" y="426"/>
      <point x="270" y="386"/>
      <point x="270" y="314" type="curve" smooth="yes"/>
      <point x="270" y="250"/>
      <point x="214" y="204"/>
      <point x="148" y="204" type="curve" smooth="yes"/>
      <point x="86" y="204"/>
      <point x="62" y="236"/>
      <point x="54" y="252" type="curve"/>
      <point x="52" y="94"/>
      <point x="198" y="8"/>
      <point x="370" y="8" type="curve" smooth="yes"/>
      <point x="576" y="8"/>
      <point x="664" y="148"/>
      <point x="664" y="242" type="curve" smooth="yes"/>
      <point x="664" y="474"/>
      <point x="138" y="404"/>
      <point x="138" y="690" type="curve" smooth="yes"/>
      <point x="138" y="834"/>
      <point x="296" y="948"/>
      <point x="384" y="1000" type="curve"/>
      <point x="410" y="1000" type="line"/>
      <point x="394" y="976"/>
      <point x="334" y="894"/>
      <point x="334" y="814" type="curve" smooth="yes"/>
      <point x="334" y="552"/>
      <point x="800" y="688"/>
    </contour>
  </outline>
</glyph>
<glyph name="degree" format="2">
  <advance width="639"/>
  <unicode hex="00B0"/>
  <outline>
    <contour>
      <point x="388" y="1360" type="curve" smooth="yes"/>
      <point x="388" y="1492"/>
      <point x="496" y="1600"/>
      <point x="628" y="1600" type="curve" smooth="yes"/>
      <point x="760" y="1600"/>
      <point x="868" y="1492"/>
      <point x="868" y="1360" type="curve" smooth="yes"/>
      <point x="868" y="1228"/>
      <point x="760" y="1120"/>
      <point x="628" y="1120" type="curve" smooth="yes"/>
      <point x="496" y="1120"/>
      <point x="388" y="1228"/>
    </contour>
    <contour>
      <point x="474" y="1360" type="curve" smooth="yes"/>
      <point x="474" y="1272"/>
      <point x="540" y="1206"/>
      <point x="628" y="1206" type="curve" smooth="yes"/>
      <point x="716" y="1206"/>
      <point x="782" y="1272"/>
      <point x="782" y="1360" type="curve" smooth="yes"/>
      <point x="782" y="1448"/>
      <point x="716" y="1514"/>
      <point x="628" y="1514" type="curve" smooth="yes"/>
      <point x="540" y="1514"/>
      <point x="474" y="1448"/>
    </contour>
  </outline>
</glyph>
<glyph name="mu" format="2">
  <advance width="1225"/>
  <unicode hex="00B5"/>
  <outline>
    <contour>
      <point x="50" y="-182" type="line" smooth="yes"/>
      <point x="8" y="-362"/>
      <point x="30" y="-490"/>
      <point x="200" y="-500" type="curve"/>
      <point x="222" y="-496" type="line"/>
      <point x="168" y="-464"/>
      <point x="142" y="-418"/>
      <point x="142" y="-362" type="curve" smooth="yes"/>
      <point x="142" y="-294"/>
      <point x="198" y="-248"/>
      <point x="264" y="-248" type="curve" smooth="yes"/>
      <point x="330" y="-248"/>
      <point x="386" y="-304"/>
      <point x="386" y="-380" type="curve" smooth="yes"/>
      <point x="386" y="-458"/>
      <point x="342" y="-520"/>
      <point x="196" y="-520" type="curve" smooth="yes"/>
      <point x="16" y="-520"/>
      <point x="-22" y="-372"/>
      <point x="22" y="-182" type="curve" smooth="yes"/>
      <point x="212" y="642" type="line"/>
      <point x="240" y="642" type="line"/>
    </contour>
    <component base="u"/>
  </outline>
</glyph>
<glyph name="AE" format="2">
  <advance width="2000"/>
  <unicode hex="00C6"/>
  <outline>
    <contour>
      <point x="1358" y="1500" type="line"/>
      <point x="2188" y="1500" type="line"/>
      <point x="2092" y="1090" type="line"/>
      <point x="2064" y="1090" type="line"/>
      <point x="2114" y="1304"/>
      <point x="2072" y="1472"/>
      <point x="1838" y="1472" type="curve" smooth="yes"/>
      <point x="1358" y="1472" type="line"/>
    </contour>
    <contour>
      <point x="1456" y="762" type="curve" smooth="yes"/>
      <point x="1314" y="762" type="line"/>
      <point x="1314" y="790" type="line"/>
      <point x="1456" y="790" type="line" smooth="yes"/>
      <point x="1570" y="790"/>
      <point x="1670" y="852"/>
      <point x="1700" y="986" type="curve"/>
      <point x="1728" y="986" type="line"/>
      <point x="1630" y="556" type="line"/>
      <point x="1602" y="556" type="line"/>
      <point x="1632" y="690"/>
      <point x="1570" y="762"/>
    </contour>
    <contour>
      <point x="1860" y="0" type="line"/>
      <point x="800" y="0" type="line"/>
      <point x="800" y="28" type="line"/>
      <point x="1490" y="28" type="line" smooth="yes"/>
      <point x="1764" y="28"/>
      <point x="1878" y="196"/>
      <point x="1936" y="450" type="curve"/>
      <point x="1964" y="450" type="line"/>
    </contour>
    <contour>
      <point x="1318" y="1500" type="line"/>
      <point x="1508" y="1500" type="line"/>
      <point x="1160" y="0" type="line"/>
      <point x="970" y="0" type="line"/>
    </contour>
    <contour>
      <point x="518" y="504" type="line"/>
      <point x="1110" y="504" type="line"/>
      <point x="1110" y="476" type="line"/>
      <point x="518" y="476" type="line"/>
    </contour>
    <contour>
      <point x="1298" y="1500" type="line"/>
      <point x="1332" y="1500" type="line"/>
      <point x="150" y="0" type="line"/>
      <point x="110" y="0" type="line"/>
    </contour>
    <contour>
      <point x="-50" y="28" type="line"/>
      <point x="390" y="28" type="line"/>
      <point x="390" y="0" type="line"/>
      <point x="-50" y="0" type="line"/>
    </contour>
  </outline>
</glyph>
<glyph name="multiply" format="2">
  <advance width="2170"/>
  <unicode hex="00D7"/>
  <outline>
    <contour>
      <point x="1659" y="676" type="line"/>
      <point x="737" y="1864" type="line"/>
      <point x="778" y="1905" type="line"/>
      <point x="1700" y="717" type="line"/>
    </contour>
    <contour>
      <point x="467" y="721" type="line"/>
      <point x="1921" y="1909" type="line"/>
      <point x="1962" y="1868" type="line"/>
      <point x="508" y="680" type="line"/>
    </contour>
  </outline>
</glyph>
<glyph name="germandbls" format="2">
  <advance width="2789"/>
  <unicode hex="00DF"/>
  <outline>
    <contour>
      <point x="2666" y="778" type="curve" smooth="yes"/>
      <point x="2666" y="205"/>
      <point x="2200" y="-41"/>
      <point x="1827" y="-41" type="curve" smooth="yes"/>
      <point x="1462" y="-41"/>
      <point x="1262" y="180"/>
      <point x="1262" y="475" type="curve" smooth="yes"/>
      <point x="1262" y="704"/>
      <point x="1393" y="823"/>
      <point x="1536" y="823" type="curve" smooth="yes"/>
      <point x="1659" y="823"/>
      <point x="1757" y="741"/>
      <point x="1757" y="594" type="curve" smooth="yes"/>
      <point x="1757" y="463"/>
      <point x="1639" y="369"/>
      <point x="1520" y="369" type="curve" smooth="yes"/>
      <point x="1446" y="369"/>
      <point x="1364" y="405"/>
      <point x="1327" y="471" type="curve"/>
      <point x="1319" y="225"/>
      <point x="1483" y="25"/>
      <point x="1786" y="25" type="curve" smooth="yes"/>
      <point x="2151" y="25"/>
      <point x="2253" y="393"/>
      <point x="2253" y="778" type="curve" smooth="yes"/>
      <point x="2253" y="1163"/>
      <point x="2097" y="1634"/>
      <point x="1610" y="1634" type="curve"/>
      <point x="1610" y="1675" type="line"/>
      <point x="2351" y="1675"/>
      <point x="2666" y="1310"/>
    </contour>
    <contour>
      <point x="-102" y="57" type="line"/>
      <point x="1004" y="57" type="line"/>
      <point x="1004" y="0" type="line"/>
      <point x="-102" y="0" type="line"/>
    </contour>
    <contour>
      <point x="1610" y="1647" type="curve"/>
      <point x="1610" y="1688" type="line"/>
      <point x="2138" y="1688"/>
      <point x="2499" y="2118"/>
      <point x="2499" y="2462" type="curve" smooth="yes"/>
      <point x="2499" y="2757"/>
      <point x="2404" y="3064"/>
      <point x="1978" y="3064" type="curve" smooth="yes"/>
      <point x="1388" y="3064"/>
      <point x="1212" y="2523"/>
      <point x="1085" y="1970" type="curve" smooth="yes"/>
      <point x="635" y="0" type="line"/>
      <point x="266" y="0" type="line"/>
      <point x="717" y="2011" type="line" smooth="yes"/>
      <point x="869" y="2687"/>
      <point x="1269" y="3113"/>
      <point x="1978" y="3113" type="curve" smooth="yes"/>
      <point x="2523" y="3113"/>
      <point x="2912" y="2884"/>
      <point x="2912" y="2462" type="curve" smooth="yes"/>
      <point x="2912" y="2011"/>
      <point x="2433" y="1647"/>
    </contour>
  </outline>
</glyph>
<glyph name="ae" format="2">
  <advance width="1525"/>
  <unicode hex="00E6"/>
  <outline>
    <contour>
      <point x="548" y="516" type="curve" smooth="yes"/>
      <point x="696" y="516" type="line"/>
      <point x="696" y="488" type="line"/>
      <point x="548" y="488" type="line" smooth="yes"/>
      <point x="376" y="488"/>
      <point x="240" y="360"/>
      <point x="240" y="176" type="curve" smooth="yes"/>
      <point x="240" y="62"/>
      <point x="290" y="8"/>
      <point x="360" y="8" type="curve" smooth="yes"/>
      <point x="474" y="8"/>
      <point x="592" y="166"/>
      <point x="636" y="362" type="curve" smooth="yes"/>
      <point x="692" y="610" type="line" smooth="yes"/>
      <point x="720" y="738"/>
      <point x="726" y="908"/>
      <point x="566" y="908" type="curve" smooth="yes"/>
      <point x="478" y="908"/>
      <point x="358" y="874"/>
      <point x="318" y="824" type="curve"/>
      <point x="396" y="842"/>
      <point x="448" y="800"/>
      <point x="448" y="736" type="curve" smooth="yes"/>
      <point x="448" y="656"/>
      <point x="380" y="622"/>
      <point x="330" y="622" type="curve" smooth="yes"/>
      <point x="270" y="622"/>
      <point x="226" y="660"/>
      <point x="226" y="732" type="curve" smooth="yes"/>
      <point x="226" y="856"/>
      <point x="404" y="936"/>
      <point x="586" y="936" type="curve" smooth="yes"/>
      <point x="846" y="936"/>
      <point x="864" y="772"/>
      <point x="832" y="610" type="curve"/>
      <point x="746" y="362" type="line"/>
      <point x="700" y="114"/>
      <point x="562" y="-20"/>
      <point x="340" y="-20" type="curve" smooth="yes"/>
      <point x="182" y="-20"/>
      <point x="36" y="38"/>
      <point x="36" y="186" type="curve" smooth="yes"/>
      <point x="36" y="374"/>
      <point x="224" y="516"/>
    </contour>
    <contour>
      <point x="1326" y="744" type="curve" smooth="yes"/>
      <point x="1326" y="838"/>
      <point x="1304" y="916"/>
      <point x="1232" y="916" type="curve" smooth="yes"/>
      <point x="1054" y="916"/>
      <point x="838" y="608"/>
      <point x="838" y="280" type="curve" smooth="yes"/>
      <point x="838" y="132"/>
      <point x="890" y="18"/>
      <point x="1008" y="18" type="curve" smooth="yes"/>
      <point x="1182" y="18"/>
      <point x="1326" y="142"/>
      <point x="1402" y="286" type="curve"/>
      <point x="1428" y="286" type="line"/>
      <point x="1350" y="132"/>
      <point x="1190" y="-20"/>
      <point x="968" y="-20" type="curve" smooth="yes"/>
      <point x="806" y="-20"/>
      <point x="670" y="80"/>
      <point x="670" y="320" type="curve"/>
      <point x="710" y="310" type="line"/>
      <point x="714" y="690"/>
      <point x="972" y="940"/>
      <point x="1232" y="940" type="curve" smooth="yes"/>
      <point x="1396" y="940"/>
      <point x="1518" y="888"/>
      <point x="1518" y="744" type="curve" smooth="yes"/>
      <point x="1518" y="438"/>
      <point x="1042" y="436"/>
      <point x="820" y="436" type="curve"/>
      <point x="820" y="464" type="line"/>
      <point x="1038" y="464"/>
      <point x="1326" y="476"/>
    </contour>
  </outline>
</glyph>
<glyph name="eth" format="2">
  <advance width="1119"/>
  <unicode hex="00F0"/>
  <outline>
    <contour>
      <point x="420" y="1260" type="line"/>
      <point x="1260" y="1260" type="line"/>
      <point x="1260" y="1232" type="line"/>
      <point x="420" y="1232" type="line"/>
    </contour>
    <contour>
      <point x="1114" y="800" type="curve" smooth="yes"/>
      <point x="1114" y="380"/>
      <point x="814" y="-20"/>
      <point x="472" y="-20" type="curve" smooth="yes"/>
      <point x="230" y="-20"/>
      <point x="80" y="80"/>
      <point x="80" y="340" type="curve" smooth="yes"/>
      <point x="80" y="760"/>
      <point x="416" y="980"/>
      <point x="658" y="980" type="curve" smooth="yes"/>
      <point x="898" y="980"/>
      <point x="912" y="818"/>
      <point x="912" y="584" type="curve"/>
      <point x="888" y="660" type="line"/>
      <point x="888" y="800"/>
      <point x="836" y="938"/>
      <point x="702" y="938" type="curve" smooth="yes"/>
      <point x="484" y="938"/>
      <point x="280" y="648"/>
      <point x="280" y="300" type="curve" smooth="yes"/>
      <point x="280" y="152"/>
      <point x="310" y="8"/>
      <point x="468" y="8" type="curve" smooth="yes"/>
      <point x="686" y="8"/>
      <point x="888" y="432"/>
      <point x="888" y="660" type="curve"/>
      <point x="904" y="698" type="line"/>
      <point x="904" y="1064"/>
      <point x="892" y="1496"/>
      <point x="470" y="1496" type="curve"/>
      <point x="470" y="1520" type="line"/>
      <point x="916" y="1520"/>
      <point x="1114" y="1186"/>
    </contour>
  </outline>
</glyph>
<glyph name="thorn" format="2">
  <advance width="1145"/>
  <unicode hex="00FE"/>
  <outline>
    <contour>
      <point x="366" y="312" type="curve" smooth="yes"/>
      <point x="366" y="166"/>
      <point x="426" y="62"/>
      <point x="516" y="62" type="curve" smooth="yes"/>
      <point x="704" y="62"/>
      <point x="880" y="392"/>
      <point x="880" y="660" type="curve" smooth="yes"/>
      <point x="880" y="816"/>
      <point x="830" y="916"/>
      <point x="728" y="916" type="curve" smooth="yes"/>
      <point x="506" y="916"/>
      <point x="366" y="528"/>
    </contour>
    <contour>
      <point x="344" y="312" type="curve" smooth="yes"/>
      <point x="344" y="528"/>
      <point x="486" y="960"/>
      <point x="768" y="960" type="curve" smooth="yes"/>
      <point x="906" y="960"/>
      <point x="1088" y="880"/>
      <point x="1088" y="620" type="curve" smooth="yes"/>
      <point x="1088" y="220"/>
      <point x="772" y="2"/>
      <point x="574" y="2" type="curve" smooth="yes"/>
      <point x="422" y="2"/>
      <point x="344" y="128"/>
    </contour>
    <contour>
      <point x="-150" y="-472" type="line"/>
      <point x="300" y="-472" type="line"/>
      <point x="300" y="-500" type="line"/>
      <point x="-150" y="-500" type="line"/>
    </contour>
    <contour>
      <point x="430" y="1472" type="line"/>
      <point x="294" y="1472" type="line"/>
      <point x="294" y="1500" type="line"/>
      <point x="618" y="1500" type="line"/>
      <point x="410" y="588" type="line"/>
      <point x="364" y="434" type="line"/>
      <point x="350" y="314" type="line"/>
      <point x="160" y="-500" type="line"/>
      <point x="-20" y="-500" type="line"/>
    </contour>
  </outline>
</glyph>
<glyph name="dotlessi" format="2">
  <advance width="637"/>
  <unicode hex="0131"/>
  <outline>
    <contour>
      <point x="598" y="326" type="line"/>
      <point x="522" y="126"/>
      <point x="404" y="-20"/>
      <point x="242" y="-20" type="curve" smooth="yes"/>
      <point x="148" y="-20"/>
      <point x="100" y="26"/>
      <point x="100" y="126" type="curve" smooth="yes"/>
      <point x="100" y="136"/>
      <point x="102" y="158"/>
      <point x="104" y="170" type="curve" smooth="yes"/>
      <point x="266" y="892" type="line"/>
      <point x="130" y="892" type="line"/>
      <point x="130" y="920" type="line"/>
      <point x="454" y="920" type="line"/>
      <point x="262" y="98" type="line" smooth="yes"/>
      <point x="260" y="86"/>
      <point x="258" y="72"/>
      <point x="258" y="62" type="curve" smooth="yes"/>
      <point x="258" y="40"/>
      <point x="268" y="24"/>
      <point x="294" y="24" type="curve" smooth="yes"/>
      <point x="406" y="24"/>
      <point x="516" y="180"/>
      <point x="572" y="334" type="curve"/>
    </contour>
  </outline>
</glyph>
<glyph name="kgreenlandic" format="2">
  <advance width="1115"/>
  <unicode hex="0138"/>
  <outline>
    <contour>
      <point x="1070" y="326" type="line"/>
      <point x="994" y="126"/>
      <point x="876" y="-20"/>
      <point x="714" y="-20" type="curve" smooth="yes"/>
      <point x="620" y="-20"/>
      <point x="578" y="26"/>
      <point x="578" y="126" type="curve" smooth="yes"/>
      <point x="578" y="136"/>
      <point x="580" y="158"/>
      <point x="582" y="170" type="curve" smooth="yes"/>
      <point x="606" y="280" type="line" smooth="yes"/>
      <point x="632" y="396"/>
      <point x="702" y="554"/>
      <point x="554" y="554" type="curve" smooth="yes"/>
      <point x="412" y="554"/>
      <point x="382" y="448"/>
      <point x="364" y="380" type="curve"/>
      <point x="344" y="380" type="line"/>
      <point x="386" y="562"/>
      <point x="486" y="578"/>
      <point x="568" y="578" type="curve" smooth="yes"/>
      <point x="706" y="578"/>
      <point x="830" y="502"/>
      <point x="770" y="242" type="curve" smooth="yes"/>
      <point x="730" y="74" type="line" smooth="yes"/>
      <point x="730" y="70"/>
      <point x="728" y="60"/>
      <point x="728" y="56" type="curve" smooth="yes"/>
      <point x="728" y="34"/>
      <point x="742" y="24"/>
      <point x="768" y="24" type="curve" smooth="yes"/>
      <point x="878" y="24"/>
      <point x="988" y="180"/>
      <point x="1044" y="334" type="curve"/>
    </contour>
    <contour>
      <point x="409" y="502" type="curve"/>
      <point x="427" y="521" type="line"/>
      <point x="438" y="513"/>
      <point x="459" y="510"/>
      <point x="480" y="510" type="curve" smooth="yes"/>
      <point x="568" y="510"/>
      <point x="606" y="594"/>
      <point x="658" y="722" type="curve" smooth="yes"/>
      <point x="714" y="858"/>
      <point x="782" y="940"/>
      <point x="882" y="940" type="curve" smooth="yes"/>
      <point x="972" y="940"/>
      <point x="1040" y="882"/>
      <point x="1040" y="778" type="curve" smooth="yes"/>
      <point x="1040" y="688"/>
      <point x="988" y="658"/>
      <point x="938" y="658" type="curve" smooth="yes"/>
      <point x="888" y="658"/>
      <point x="838" y="692"/>
      <point x="838" y="758" type="curve" smooth="yes"/>
      <point x="838" y="814"/>
      <point x="878" y="852"/>
      <point x="934" y="852" type="curve" smooth="yes"/>
      <point x="970" y="852"/>
      <point x="990" y="832"/>
      <point x="998" y="818" type="curve"/>
      <point x="990" y="880"/>
      <point x="942" y="912"/>
      <point x="886" y="912" type="curve" smooth="yes"/>
      <point x="796" y="912"/>
      <point x="742" y="846"/>
      <point x="688" y="714" type="curve" smooth="yes"/>
      <point x="634" y="578"/>
      <point x="580" y="484"/>
      <point x="480" y="484" type="curve" smooth="yes"/>
      <point x="452" y="484"/>
      <point x="419" y="491"/>
    </contour>
    <contour>
      <point x="303" y="892" type="line"/>
      <point x="129" y="892" type="line"/>
      <point x="129" y="920" type="line"/>
      <point x="489" y="920" type="line"/>
      <point x="276" y="0" type="line"/>
      <point x="96" y="0" type="line"/>
    </contour>
  </outline>
</glyph>
<glyph name="Lslash" format="2">
  <advance width="1123"/>
  <unicode hex="0141"/>
  <outline>
    <contour>
      <point x="70" y="720" type="line"/>
      <point x="760" y="1160" type="line"/>
      <point x="760" y="1126" type="line"/>
      <point x="70" y="686" type="line"/>
    </contour>
    <component base="L"/>
  </outline>
</glyph>
<glyph name="lslash" format="2">
  <advance width="629"/>
  <unicode hex="0142"/>
  <outline>
    <contour>
      <point x="76" y="800" type="line"/>
      <point x="646" y="1160" type="line"/>
      <point x="646" y="1124" type="line"/>
      <point x="76" y="764" type="line"/>
    </contour>
    <component base="l"/>
  </outline>
</glyph>
<glyph name="uni0213" format="2">
  <advance width="801"/>
  <unicode hex="0213"/>
  <outline>
    <contour>
      <point x="756" y="1060" type="line"/>
      <point x="776" y="1158"/>
      <point x="710" y="1208"/>
      <point x="602" y="1208" type="curve" smooth="yes"/>
      <point x="494" y="1208"/>
      <point x="390" y="1158"/>
      <point x="370" y="1060" type="curve"/>
      <point x="342" y="1060" type="line"/>
      <point x="362" y="1182"/>
      <point x="442" y="1318"/>
      <point x="622" y="1318" type="curve" smooth="yes"/>
      <point x="802" y="1318"/>
      <point x="802" y="1182"/>
      <point x="782" y="1060" type="curve"/>
    </contour>
    <component base="r"/>
  </outline>
</glyph>
<glyph name="uni0237" format="2">
  <advance width="1073"/>
  <unicode hex="0237"/>
  <outline>
    <contour>
      <point x="-635" y="-750" type="curve"/>
      <point x="-598" y="-881"/>
      <point x="-475" y="-1008"/>
      <point x="-315" y="-1008" type="curve" smooth="yes"/>
      <point x="54" y="-1008"/>
      <point x="69" y="-410"/>
      <point x="184" y="82" type="curve" smooth="yes"/>
      <point x="590" y="1827" type="line"/>
      <point x="217" y="1827" type="line"/>
      <point x="217" y="1884" type="line"/>
      <point x="954" y="1884" type="line"/>
      <point x="553" y="-49" type="line" smooth="yes"/>
      <point x="447" y="-561"/>
      <point x="237" y="-1065"/>
      <point x="-295" y="-1065" type="curve" smooth="yes"/>
      <point x="-586" y="-1065"/>
      <point x="-717" y="-791"/>
      <point x="-717" y="-639" type="curve" smooth="yes"/>
      <point x="-717" y="-471"/>
      <point x="-586" y="-365"/>
      <point x="-463" y="-365" type="curve" smooth="yes"/>
      <point x="-361" y="-365"/>
      <point x="-254" y="-434"/>
      <point x="-254" y="-586" type="curve" smooth="yes"/>
      <point x="-254" y="-738"/>
      <point x="-377" y="-815"/>
      <point x="-508" y="-815" type="curve" smooth="yes"/>
      <point x="-557" y="-815"/>
      <point x="-610" y="-787"/>
    </contour>
  </outline>
</glyph>
<glyph name="caron" format="2">
  <advance width="769"/>
  <unicode hex="02C7"/>
  <outline>
    <contour>
      <point x="624" y="1430" type="line"/>
      <point x="936" y="1574" type="line"/>
      <point x="950" y="1560" type="line"/>
      <point x="690" y="1340" type="line"/>
      <point x="560" y="1340" type="line"/>
      <point x="380" y="1560" type="line"/>
      <point x="394" y="1574" type="line"/>
    </contour>
  </outline>
</glyph>
<glyph name="ring" format="2">
  <advance width="639"/>
  <unicode hex="02DA"/>
  <outline>
    <contour>
      <point x="380" y="1360" type="curve" smooth="yes"/>
      <point x="380" y="1462"/>
      <point x="458" y="1540"/>
      <point x="560" y="1540" type="curve" smooth="yes"/>
      <point x="662" y="1540"/>
      <point x="740" y="1462"/>
      <point x="740" y="1360" type="curve" smooth="yes"/>
      <point x="740" y="1258"/>
      <point x="662" y="1180"/>
      <point x="560" y="1180" type="curve" smooth="yes"/>
      <point x="458" y="1180"/>
      <point x="380" y="1258"/>
    </contour>
    <contour>
      <point x="450" y="1320" type="curve" smooth="yes"/>
      <point x="450" y="1262"/>
      <point x="476" y="1208"/>
      <point x="550" y="1208" type="curve" smooth="yes"/>
      <point x="624" y="1208"/>
      <point x="670" y="1316"/>
      <point x="670" y="1400" type="curve" smooth="yes"/>
      <point x="670" y="1458"/>
      <point x="644" y="1512"/>
      <point x="570" y="1512" type="curve" smooth="yes"/>
      <point x="496" y="1512"/>
      <point x="450" y="1404"/>
    </contour>
  </outline>
</glyph>
<glyph name="ogonek" format="2">
  <advance width="1099"/>
  <unicode hex="02DB"/>
  <outline>
    <contour>
      <point x="636" y="-226" type="line"/>
      <point x="606" y="-282"/>
      <point x="548" y="-372"/>
      <point x="406" y="-372" type="curve" smooth="yes"/>
      <point x="304" y="-372"/>
      <point x="200" y="-340"/>
      <point x="200" y="-220" type="curve" smooth="yes"/>
      <point x="200" y="-60"/>
      <point x="426" y="46"/>
      <point x="548" y="86" type="curve"/>
      <point x="554" y="70" type="line"/>
      <point x="492" y="36"/>
      <point x="386" y="-44"/>
      <point x="386" y="-198" type="curve" smooth="yes"/>
      <point x="386" y="-280"/>
      <point x="424" y="-324"/>
      <point x="472" y="-324" type="curve" smooth="yes"/>
      <point x="546" y="-324"/>
      <point x="590" y="-262"/>
      <point x="614" y="-216" type="curve"/>
    </contour>
  </outline>
</glyph>
<glyph name="perthousand" format="2">
  <advance width="2939"/>
  <unicode hex="2030"/>
  <outline>
    <contour>
      <point x="2400" y="-20" type="curve" smooth="yes"/>
      <point x="2214" y="-20"/>
      <point x="2100" y="74"/>
      <point x="2100" y="280" type="curve" smooth="yes"/>
      <point x="2100" y="606"/>
      <point x="2314" y="860"/>
      <point x="2580" y="860" type="curve" smooth="yes"/>
      <point x="2766" y="860"/>
      <point x="2880" y="766"/>
      <point x="2880" y="560" type="curve" smooth="yes"/>
      <point x="2880" y="234"/>
      <point x="2666" y="-20"/>
    </contour>
    <contour>
      <point x="2580" y="832" type="curve" smooth="yes"/>
      <point x="2432" y="832"/>
      <point x="2300" y="504"/>
      <point x="2300" y="240" type="curve" smooth="yes"/>
      <point x="2300" y="108"/>
      <point x="2332" y="8"/>
      <point x="2400" y="8" type="curve" smooth="yes"/>
      <point x="2548" y="8"/>
      <point x="2680" y="324"/>
      <point x="2680" y="588" type="curve" smooth="yes"/>
      <point x="2680" y="720"/>
      <point x="2648" y="832"/>
    </contour>
    <contour>
      <point x="1460" y="-20" type="curve" smooth="yes"/>
      <point x="1274" y="-20"/>
      <point x="1160" y="74"/>
      <point x="1160" y="280" type="curve" smooth="yes"/>
      <point x="1160" y="606"/>
      <point x="1374" y="860"/>
      <point x="1640" y="860" type="curve" smooth="yes"/>
      <point x="1826" y="860"/>
      <point x="1940" y="766"/>
      <point x="1940" y="560" type="curve" smooth="yes"/>
      <point x="1940" y="234"/>
      <point x="1726" y="-20"/>
    </contour>
    <contour>
      <point x="1640" y="832" type="curve" smooth="yes"/>
      <point x="1492" y="832"/>
      <point x="1360" y="504"/>
      <point x="1360" y="240" type="curve" smooth="yes"/>
      <point x="1360" y="108"/>
      <point x="1392" y="8"/>
      <point x="1460" y="8" type="curve" smooth="yes"/>
      <point x="1608" y="8"/>
      <point x="1740" y="324"/>
      <point x="1740" y="588" type="curve" smooth="yes"/>
      <point x="1740" y="720"/>
      <point x="1708" y="832"/>
    </contour>
    <contour>
      <point x="1754" y="1500" type="line"/>
      <point x="1790" y="1500" type="line"/>
      <point x="422" y="0" type="line"/>
      <point x="386" y="0" type="line"/>
    </contour>
    <contour>
      <point x="550" y="640" type="curve" smooth="yes"/>
      <point x="364" y="640"/>
      <point x="250" y="734"/>
      <point x="250" y="940" type="curve" smooth="yes"/>
      <point x="250" y="1266"/>
      <point x="464" y="1520"/>
      <point x="730" y="1520" type="curve" smooth="yes"/>
      <point x="916" y="1520"/>
      <point x="1030" y="1426"/>
      <point x="1030" y="1220" type="curve" smooth="yes"/>
      <point x="1030" y="894"/>
      <point x="816" y="640"/>
    </contour>
    <contour>
      <point x="730" y="1492" type="curve" smooth="yes"/>
      <point x="582" y="1492"/>
      <point x="450" y="1164"/>
      <point x="450" y="900" type="curve" smooth="yes"/>
      <point x="450" y="768"/>
      <point x="482" y="668"/>
      <point x="550" y="668" type="curve" smooth="yes"/>
      <point x="698" y="668"/>
      <point x="830" y="996"/>
      <point x="830" y="1260" type="curve" smooth="yes"/>
      <point x="830" y="1392"/>
      <point x="798" y="1492"/>
    </contour>
  </outline>
</glyph>
<glyph name="Euro" format="2">
  <advance width="1419"/>
  <unicode hex="20AC"/>
  <outline>
    <contour>
      <point x="1464" y="1300" type="curve"/>
      <point x="1456" y="1362"/>
      <point x="1354" y="1492"/>
      <point x="1178" y="1492" type="curve" smooth="yes"/>
      <point x="800" y="1492"/>
      <point x="538" y="978"/>
      <point x="538" y="490" type="curve" smooth="yes"/>
      <point x="538" y="262"/>
      <point x="592" y="12"/>
      <point x="810" y="12" type="curve" smooth="yes"/>
      <point x="1008" y="12"/>
      <point x="1206" y="180"/>
      <point x="1276" y="356" type="curve"/>
      <point x="1306" y="356" type="line"/>
      <point x="1234" y="162"/>
      <point x="1028" y="-20"/>
      <point x="786" y="-20" type="curve" smooth="yes"/>
      <point x="544" y="-20"/>
      <point x="310" y="150"/>
      <point x="310" y="550" type="curve" smooth="yes"/>
      <point x="310" y="1070"/>
      <point x="716" y="1520"/>
      <point x="1158" y="1520" type="curve" smooth="yes"/>
      <point x="1402" y="1520"/>
      <point x="1510" y="1336"/>
      <point x="1510" y="1232" type="curve" smooth="yes"/>
      <point x="1510" y="1150"/>
      <point x="1456" y="1108"/>
      <point x="1396" y="1108" type="curve" smooth="yes"/>
      <point x="1346" y="1108"/>
      <point x="1282" y="1140"/>
      <point x="1282" y="1220" type="curve" smooth="yes"/>
      <point x="1282" y="1290"/>
      <point x="1342" y="1330"/>
      <point x="1400" y="1330" type="curve" smooth="yes"/>
      <point x="1434" y="1330"/>
      <point x="1456" y="1310"/>
    </contour>
    <component base="equal" xOffset="-60" yOffset="-140"/>
  </outline>
</glyph>
<glyph name="uniFB00" format="2">
  <advance width="1231"/>
  <unicode hex="FB00"/>
  <outline>
    <contour>
      <point x="104" y="920" type="line"/>
      <point x="1304" y="920" type="line"/>
      <point x="1304" y="892" type="line"/>
      <point x="104" y="892" type="line"/>
    </contour>
    <contour>
      <point x="1502" y="1390" type="curve"/>
      <point x="1488" y="1430"/>
      <point x="1444" y="1492"/>
      <point x="1326" y="1492" type="curve" smooth="yes"/>
      <point x="1186" y="1492"/>
      <point x="1088" y="1324"/>
      <point x="1044" y="1080" type="curve" smooth="yes"/>
      <point x="864" y="76" type="line" smooth="yes"/>
      <point x="818" y="-176"/>
      <point x="654" y="-420"/>
      <point x="374" y="-420" type="curve" smooth="yes"/>
      <point x="192" y="-420"/>
      <point x="128" y="-306"/>
      <point x="128" y="-222" type="curve" smooth="yes"/>
      <point x="128" y="-140"/>
      <point x="182" y="-98"/>
      <point x="242" y="-98" type="curve" smooth="yes"/>
      <point x="292" y="-98"/>
      <point x="354" y="-126"/>
      <point x="354" y="-206" type="curve" smooth="yes"/>
      <point x="354" y="-286"/>
      <point x="292" y="-318"/>
      <point x="234" y="-318" type="curve" smooth="yes"/>
      <point x="206" y="-318"/>
      <point x="184" y="-304"/>
      <point x="178" y="-290" type="curve"/>
      <point x="192" y="-330"/>
      <point x="236" y="-392"/>
      <point x="374" y="-392" type="curve" smooth="yes"/>
      <point x="534" y="-392"/>
      <point x="634" y="-224"/>
      <point x="676" y="20" type="curve" smooth="yes"/>
      <point x="850" y="1024" type="line" smooth="yes"/>
      <point x="894" y="1276"/>
      <point x="1066" y="1520"/>
      <point x="1326" y="1520" type="curve" smooth="yes"/>
      <point x="1488" y="1520"/>
      <point x="1552" y="1406"/>
      <point x="1552" y="1322" type="curve" smooth="yes"/>
      <point x="1552" y="1240"/>
      <point x="1498" y="1198"/>
      <point x="1438" y="1198" type="curve" smooth="yes"/>
      <point x="1388" y="1198"/>
      <point x="1326" y="1226"/>
      <point x="1326" y="1306" type="curve" smooth="yes"/>
      <point x="1326" y="1386"/>
      <point x="1388" y="1418"/>
      <point x="1446" y="1418" type="curve" smooth="yes"/>
      <point x="1474" y="1418"/>
      <point x="1496" y="1402"/>
    </contour>
    <contour>
      <point x="960" y="1290" type="curve"/>
      <point x="946" y="1330"/>
      <point x="902" y="1392"/>
      <point x="764" y="1392" type="curve" smooth="yes"/>
      <point x="604" y="1392"/>
      <point x="506" y="1224"/>
      <point x="462" y="980" type="curve" smooth="yes"/>
      <point x="282" y="-24" type="line" smooth="yes"/>
      <point x="236" y="-276"/>
      <point x="72" y="-520"/>
      <point x="-188" y="-520" type="curve" smooth="yes"/>
      <point x="-350" y="-520"/>
      <point x="-414" y="-406"/>
      <point x="-414" y="-322" type="curve" smooth="yes"/>
      <point x="-414" y="-240"/>
      <point x="-360" y="-198"/>
      <point x="-300" y="-198" type="curve" smooth="yes"/>
      <point x="-250" y="-198"/>
      <point x="-188" y="-226"/>
      <point x="-188" y="-306" type="curve" smooth="yes"/>
      <point x="-188" y="-386"/>
      <point x="-250" y="-418"/>
      <point x="-308" y="-418" type="curve" smooth="yes"/>
      <point x="-336" y="-418"/>
      <point x="-358" y="-404"/>
      <point x="-364" y="-390" type="curve"/>
      <point x="-350" y="-430"/>
      <point x="-306" y="-492"/>
      <point x="-188" y="-492" type="curve" smooth="yes"/>
      <point x="-48" y="-492"/>
      <point x="52" y="-324"/>
      <point x="94" y="-80" type="curve" smooth="yes"/>
      <point x="268" y="924" type="line" smooth="yes"/>
      <point x="312" y="1176"/>
      <point x="484" y="1420"/>
      <point x="764" y="1420" type="curve" smooth="yes"/>
      <point x="946" y="1420"/>
      <point x="1010" y="1306"/>
      <point x="1010" y="1222" type="curve" smooth="yes"/>
      <point x="1010" y="1140"/>
      <point x="956" y="1098"/>
      <point x="896" y="1098" type="curve" smooth="yes"/>
      <point x="846" y="1098"/>
      <point x="784" y="1126"/>
      <point x="784" y="1206" type="curve" smooth="yes"/>
      <point x="784" y="1286"/>
      <point x="846" y="1318"/>
      <point x="904" y="1318" type="curve" smooth="yes"/>
      <point x="932" y="1318"/>
      <point x="954" y="1302"/>
    </contour>
  </outline>
</glyph>
<glyph name="uniFB01" format="2">
  <advance width="1185"/>
  <unicode hex="FB01"/>
  <outline>
    <contour>
      <point x="1146" y="326" type="line"/>
      <point x="1070" y="126"/>
      <point x="952" y="-20"/>
      <point x="790" y="-20" type="curve" smooth="yes"/>
      <point x="696" y="-20"/>
      <point x="648" y="26"/>
      <point x="648" y="126" type="curve" smooth="yes"/>
      <point x="648" y="136"/>
      <point x="650" y="158"/>
      <point x="652" y="170" type="curve" smooth="yes"/>
      <point x="814" y="892" type="line"/>
      <point x="104" y="892" type="line"/>
      <point x="104" y="920" type="line"/>
      <point x="1002" y="920" type="line"/>
      <point x="810" y="98" type="line" smooth="yes"/>
      <point x="808" y="86"/>
      <point x="806" y="72"/>
      <point x="806" y="62" type="curve" smooth="yes"/>
      <point x="806" y="40"/>
      <point x="816" y="24"/>
      <point x="842" y="24" type="curve" smooth="yes"/>
      <point x="954" y="24"/>
      <point x="1064" y="180"/>
      <point x="1120" y="334" type="curve"/>
    </contour>
    <contour>
      <point x="1022" y="1390" type="curve"/>
      <point x="1008" y="1430"/>
      <point x="964" y="1492"/>
      <point x="806" y="1492" type="curve" smooth="yes"/>
      <point x="626" y="1492"/>
      <point x="528" y="1324"/>
      <point x="484" y="1080" type="curve" smooth="yes"/>
      <point x="282" y="-24" type="line" smooth="yes"/>
      <point x="236" y="-274"/>
      <point x="72" y="-520"/>
      <point x="-188" y="-520" type="curve" smooth="yes"/>
      <point x="-350" y="-520"/>
      <point x="-414" y="-406"/>
      <point x="-414" y="-322" type="curve" smooth="yes"/>
      <point x="-414" y="-240"/>
      <point x="-360" y="-198"/>
      <point x="-300" y="-198" type="curve" smooth="yes"/>
      <point x="-250" y="-198"/>
      <point x="-188" y="-226"/>
      <point x="-188" y="-306" type="curve" smooth="yes"/>
      <point x="-188" y="-386"/>
      <point x="-250" y="-418"/>
      <point x="-308" y="-418" type="curve" smooth="yes"/>
      <point x="-336" y="-418"/>
      <point x="-358" y="-404"/>
      <point x="-364" y="-390" type="curve"/>
      <point x="-350" y="-430"/>
      <point x="-306" y="-492"/>
      <point x="-188" y="-492" type="curve" smooth="yes"/>
      <point x="-48" y="-492"/>
      <point x="52" y="-324"/>
      <point x="94" y="-80" type="curve" smooth="yes"/>
      <point x="290" y="1024" type="line" smooth="yes"/>
      <point x="334" y="1276"/>
      <point x="506" y="1520"/>
      <point x="806" y="1520" type="curve" smooth="yes"/>
      <point x="1008" y="1520"/>
      <point x="1072" y="1406"/>
      <point x="1072" y="1322" type="curve" smooth="yes"/>
      <point x="1072" y="1240"/>
      <point x="1018" y="1198"/>
      <point x="958" y="1198" type="curve" smooth="yes"/>
      <point x="908" y="1198"/>
      <point x="846" y="1226"/>
      <point x="846" y="1306" type="curve" smooth="yes"/>
      <point x="846" y="1386"/>
      <point x="908" y="1418"/>
      <point x="966" y="1418" type="curve" smooth="yes"/>
      <point x="994" y="1418"/>
      <point x="1016" y="1402"/>
    </contour>
  </outline>
</glyph>
<glyph name="uniFB02" format="2">
  <advance width="1237"/>
  <unicode hex="FB02"/>
  <outline>
    <contour>
      <point x="1198" y="326" type="line"/>
      <point x="1122" y="126"/>
      <point x="1004" y="-20"/>
      <point x="842" y="-20" type="curve" smooth="yes"/>
      <point x="748" y="-20"/>
      <point x="700" y="26"/>
      <point x="700" y="126" type="curve" smooth="yes"/>
      <point x="700" y="136"/>
      <point x="702" y="158"/>
      <point x="704" y="170" type="curve" smooth="yes"/>
      <point x="1000" y="1460" type="line"/>
      <point x="1198" y="1540" type="line"/>
      <point x="862" y="98" type="line" smooth="yes"/>
      <point x="860" y="86"/>
      <point x="858" y="72"/>
      <point x="858" y="62" type="curve" smooth="yes"/>
      <point x="858" y="40"/>
      <point x="868" y="24"/>
      <point x="894" y="24" type="curve" smooth="yes"/>
      <point x="1008" y="24"/>
      <point x="1118" y="186"/>
      <point x="1172" y="334" type="curve"/>
    </contour>
    <contour>
      <point x="104" y="920" type="line"/>
      <point x="744" y="920" type="line"/>
      <point x="744" y="892" type="line"/>
      <point x="104" y="892" type="line"/>
    </contour>
    <contour>
      <point x="1052" y="1322" type="curve" smooth="yes"/>
      <point x="1052" y="1240"/>
      <point x="998" y="1198"/>
      <point x="938" y="1198" type="curve" smooth="yes"/>
      <point x="888" y="1198"/>
      <point x="826" y="1226"/>
      <point x="826" y="1306" type="curve" smooth="yes"/>
      <point x="826" y="1386"/>
      <point x="888" y="1418"/>
      <point x="946" y="1418" type="curve" smooth="yes"/>
      <point x="974" y="1418"/>
      <point x="996" y="1402"/>
      <point x="1002" y="1390" type="curve"/>
      <point x="988" y="1430"/>
      <point x="952" y="1492"/>
      <point x="826" y="1492" type="curve" smooth="yes"/>
      <point x="666" y="1492"/>
      <point x="528" y="1324"/>
      <point x="484" y="1080" type="curve" smooth="yes"/>
      <point x="282" y="-24" type="line" smooth="yes"/>
      <point x="236" y="-274"/>
      <point x="72" y="-520"/>
      <point x="-188" y="-520" type="curve" smooth="yes"/>
      <point x="-350" y="-520"/>
      <point x="-414" y="-406"/>
      <point x="-414" y="-322" type="curve" smooth="yes"/>
      <point x="-414" y="-240"/>
      <point x="-360" y="-198"/>
      <point x="-300" y="-198" type="curve" smooth="yes"/>
      <point x="-250" y="-198"/>
      <point x="-188" y="-226"/>
      <point x="-188" y="-306" type="curve" smooth="yes"/>
      <point x="-188" y="-386"/>
      <point x="-250" y="-418"/>
      <point x="-308" y="-418" type="curve" smooth="yes"/>
      <point x="-336" y="-418"/>
      <point x="-358" y="-404"/>
      <point x="-364" y="-390" type="curve"/>
      <point x="-350" y="-430"/>
      <point x="-306" y="-492"/>
      <point x="-188" y="-492" type="curve" smooth="yes"/>
      <point x="-48" y="-492"/>
      <point x="52" y="-324"/>
      <point x="94" y="-80" type="curve" smooth="yes"/>
      <point x="290" y="1024" type="line" smooth="yes"/>
      <point x="334" y="1276"/>
      <point x="546" y="1520"/>
      <point x="826" y="1520" type="curve" smooth="yes"/>
      <point x="1006" y="1520"/>
      <point x="1052" y="1408"/>
    </contour>
  </outline>
</glyph>
<glyph name="uniFB03" format="2">
  <advance width="1745"/>
  <unicode hex="FB03"/>
  <outline>
    <contour>
      <point x="1706" y="326" type="line"/>
      <point x="1630" y="126"/>
      <point x="1512" y="-20"/>
      <point x="1350" y="-20" type="curve" smooth="yes"/>
      <point x="1256" y="-20"/>
      <point x="1208" y="26"/>
      <point x="1208" y="126" type="curve" smooth="yes"/>
      <point x="1208" y="136"/>
      <point x="1210" y="158"/>
      <point x="1212" y="170" type="curve" smooth="yes"/>
      <point x="1374" y="892" type="line"/>
      <point x="104" y="892" type="line"/>
      <point x="104" y="920" type="line"/>
      <point x="1562" y="920" type="line"/>
      <point x="1370" y="98" type="line" smooth="yes"/>
      <point x="1368" y="86"/>
      <point x="1366" y="72"/>
      <point x="1366" y="62" type="curve" smooth="yes"/>
      <point x="1366" y="40"/>
      <point x="1376" y="24"/>
      <point x="1402" y="24" type="curve" smooth="yes"/>
      <point x="1514" y="24"/>
      <point x="1624" y="180"/>
      <point x="1680" y="334" type="curve"/>
    </contour>
    <contour>
      <point x="1632" y="1322" type="curve" smooth="yes"/>
      <point x="1632" y="1240"/>
      <point x="1578" y="1198"/>
      <point x="1518" y="1198" type="curve" smooth="yes"/>
      <point x="1468" y="1198"/>
      <point x="1406" y="1226"/>
      <point x="1406" y="1306" type="curve" smooth="yes"/>
      <point x="1406" y="1386"/>
      <point x="1468" y="1418"/>
      <point x="1526" y="1418" type="curve" smooth="yes"/>
      <point x="1554" y="1418"/>
      <point x="1576" y="1402"/>
      <point x="1582" y="1390" type="curve"/>
      <point x="1568" y="1430"/>
      <point x="1524" y="1492"/>
      <point x="1366" y="1492" type="curve" smooth="yes"/>
      <point x="1186" y="1492"/>
      <point x="1088" y="1324"/>
      <point x="1044" y="1080" type="curve" smooth="yes"/>
      <point x="864" y="76" type="line" smooth="yes"/>
      <point x="820" y="-174"/>
      <point x="654" y="-420"/>
      <point x="374" y="-420" type="curve" smooth="yes"/>
      <point x="192" y="-420"/>
      <point x="128" y="-306"/>
      <point x="128" y="-222" type="curve" smooth="yes"/>
      <point x="128" y="-140"/>
      <point x="182" y="-98"/>
      <point x="242" y="-98" type="curve" smooth="yes"/>
      <point x="292" y="-98"/>
      <point x="354" y="-126"/>
      <point x="354" y="-206" type="curve" smooth="yes"/>
      <point x="354" y="-286"/>
      <point x="292" y="-318"/>
      <point x="234" y="-318" type="curve" smooth="yes"/>
      <point x="206" y="-318"/>
      <point x="184" y="-304"/>
      <point x="178" y="-290" type="curve"/>
      <point x="192" y="-330"/>
      <point x="236" y="-392"/>
      <point x="374" y="-392" type="curve" smooth="yes"/>
      <point x="534" y="-392"/>
      <point x="634" y="-224"/>
      <point x="676" y="20" type="curve" smooth="yes"/>
      <point x="850" y="1024" type="line" smooth="yes"/>
      <point x="894" y="1276"/>
      <point x="1066" y="1520"/>
      <point x="1366" y="1520" type="curve" smooth="yes"/>
      <point x="1566" y="1520"/>
      <point x="1632" y="1410"/>
    </contour>
    <contour>
      <point x="960" y="1290" type="curve"/>
      <point x="946" y="1330"/>
      <point x="902" y="1392"/>
      <point x="764" y="1392" type="curve" smooth="yes"/>
      <point x="604" y="1392"/>
      <point x="506" y="1224"/>
      <point x="462" y="980" type="curve" smooth="yes"/>
      <point x="282" y="-24" type="line" smooth="yes"/>
      <point x="236" y="-276"/>
      <point x="72" y="-520"/>
      <point x="-188" y="-520" type="curve" smooth="yes"/>
      <point x="-350" y="-520"/>
      <point x="-414" y="-406"/>
      <point x="-414" y="-322" type="curve" smooth="yes"/>
      <point x="-414" y="-240"/>
      <point x="-360" y="-198"/>
      <point x="-300" y="-198" type="curve" smooth="yes"/>
      <point x="-250" y="-198"/>
      <point x="-188" y="-226"/>
      <point x="-188" y="-306" type="curve" smooth="yes"/>
      <point x="-188" y="-386"/>
      <point x="-250" y="-418"/>
      <point x="-308" y="-418" type="curve" smooth="yes"/>
      <point x="-336" y="-418"/>
      <point x="-358" y="-404"/>
      <point x="-364" y="-390" type="curve"/>
      <point x="-350" y="-430"/>
      <point x="-306" y="-492"/>
      <point x="-188" y="-492" type="curve" smooth="yes"/>
      <point x="-48" y="-492"/>
      <point x="52" y="-324"/>
      <point x="94" y="-80" type="curve" smooth="yes"/>
      <point x="268" y="924" type="line" smooth="yes"/>
      <point x="312" y="1176"/>
      <point x="484" y="1420"/>
      <point x="764" y="1420" type="curve" smooth="yes"/>
      <point x="946" y="1420"/>
      <point x="1010" y="1306"/>
      <point x="1010" y="1222" type="curve" smooth="yes"/>
      <point x="1010" y="1140"/>
      <point x="956" y="1098"/>
      <point x="896" y="1098" type="curve" smooth="yes"/>
      <point x="846" y="1098"/>
      <point x="784" y="1126"/>
      <point x="784" y="1206" type="curve" smooth="yes"/>
      <point x="784" y="1286"/>
      <point x="846" y="1318"/>
      <point x="904" y="1318" type="curve" smooth="yes"/>
      <point x="932" y="1318"/>
      <point x="954" y="1302"/>
    </contour>
  </outline>
</glyph>
<glyph name="uniFB04" format="2">
  <advance width="1797"/>
  <unicode hex="FB04"/>
  <outline>
    <contour>
      <point x="1758" y="326" type="line"/>
      <point x="1682" y="126"/>
      <point x="1564" y="-20"/>
      <point x="1402" y="-20" type="curve" smooth="yes"/>
      <point x="1308" y="-20"/>
      <point x="1260" y="26"/>
      <point x="1260" y="126" type="curve" smooth="yes"/>
      <point x="1260" y="136"/>
      <point x="1262" y="158"/>
      <point x="1264" y="170" type="curve" smooth="yes"/>
      <point x="1560" y="1460" type="line"/>
      <point x="1758" y="1540" type="line"/>
      <point x="1422" y="98" type="line" smooth="yes"/>
      <point x="1420" y="86"/>
      <point x="1418" y="72"/>
      <point x="1418" y="62" type="curve" smooth="yes"/>
      <point x="1418" y="40"/>
      <point x="1428" y="24"/>
      <point x="1454" y="24" type="curve" smooth="yes"/>
      <point x="1568" y="24"/>
      <point x="1678" y="186"/>
      <point x="1732" y="334" type="curve"/>
    </contour>
    <contour>
      <point x="104" y="920" type="line"/>
      <point x="1304" y="920" type="line"/>
      <point x="1304" y="892" type="line"/>
      <point x="104" y="892" type="line"/>
    </contour>
    <contour>
      <point x="1562" y="1390" type="curve"/>
      <point x="1548" y="1430"/>
      <point x="1512" y="1492"/>
      <point x="1386" y="1492" type="curve" smooth="yes"/>
      <point x="1226" y="1492"/>
      <point x="1088" y="1324"/>
      <point x="1044" y="1080" type="curve" smooth="yes"/>
      <point x="864" y="76" type="line" smooth="yes"/>
      <point x="818" y="-176"/>
      <point x="658" y="-420"/>
      <point x="378" y="-420" type="curve" smooth="yes"/>
      <point x="196" y="-420"/>
      <point x="132" y="-306"/>
      <point x="132" y="-222" type="curve" smooth="yes"/>
      <point x="132" y="-140"/>
      <point x="186" y="-98"/>
      <point x="246" y="-98" type="curve" smooth="yes"/>
      <point x="296" y="-98"/>
      <point x="358" y="-126"/>
      <point x="358" y="-206" type="curve" smooth="yes"/>
      <point x="358" y="-286"/>
      <point x="296" y="-318"/>
      <point x="238" y="-318" type="curve" smooth="yes"/>
      <point x="210" y="-318"/>
      <point x="188" y="-304"/>
      <point x="182" y="-290" type="curve"/>
      <point x="196" y="-330"/>
      <point x="240" y="-392"/>
      <point x="378" y="-392" type="curve" smooth="yes"/>
      <point x="538" y="-392"/>
      <point x="638" y="-224"/>
      <point x="680" y="20" type="curve" smooth="yes"/>
      <point x="850" y="1024" type="line" smooth="yes"/>
      <point x="894" y="1276"/>
      <point x="1106" y="1520"/>
      <point x="1386" y="1520" type="curve" smooth="yes"/>
      <point x="1568" y="1520"/>
      <point x="1612" y="1406"/>
      <point x="1612" y="1322" type="curve" smooth="yes"/>
      <point x="1612" y="1240"/>
      <point x="1558" y="1198"/>
      <point x="1498" y="1198" type="curve" smooth="yes"/>
      <point x="1448" y="1198"/>
      <point x="1386" y="1226"/>
      <point x="1386" y="1306" type="curve" smooth="yes"/>
      <point x="1386" y="1386"/>
      <point x="1448" y="1418"/>
      <point x="1506" y="1418" type="curve" smooth="yes"/>
      <point x="1534" y="1418"/>
      <point x="1556" y="1402"/>
    </contour>
    <contour>
      <point x="960" y="1290" type="curve"/>
      <point x="946" y="1330"/>
      <point x="902" y="1392"/>
      <point x="764" y="1392" type="curve" smooth="yes"/>
      <point x="604" y="1392"/>
      <point x="506" y="1224"/>
      <point x="462" y="980" type="curve" smooth="yes"/>
      <point x="282" y="-24" type="line" smooth="yes"/>
      <point x="236" y="-276"/>
      <point x="72" y="-520"/>
      <point x="-188" y="-520" type="curve" smooth="yes"/>
      <point x="-350" y="-520"/>
      <point x="-414" y="-406"/>
      <point x="-414" y="-322" type="curve" smooth="yes"/>
      <point x="-414" y="-240"/>
      <point x="-360" y="-198"/>
      <point x="-300" y="-198" type="curve" smooth="yes"/>
      <point x="-250" y="-198"/>
      <point x="-188" y="-226"/>
      <point x="-188" y="-306" type="curve" smooth="yes"/>
      <point x="-188" y="-386"/>
      <point x="-250" y="-418"/>
      <point x="-308" y="-418" type="curve" smooth="yes"/>
      <point x="-336" y="-418"/>
      <point x="-358" y="-404"/>
      <point x="-364" y="-390" type="curve"/>
      <point x="-350" y="-430"/>
      <point x="-306" y="-492"/>
      <point x="-188" y="-492" type="curve" smooth="yes"/>
      <point x="-48" y="-492"/>
      <point x="52" y="-324"/>
      <point x="94" y="-80" type="curve" smooth="yes"/>
      <point x="268" y="924" type="line" smooth="yes"/>
      <point x="312" y="1176"/>
      <point x="484" y="1420"/>
      <point x="764" y="1420" type="curve" smooth="yes"/>
      <point x="946" y="1420"/>
      <point x="1010" y="1306"/>
      <point x="1010" y="1222" type="curve" smooth="yes"/>
      <point x="1010" y="1140"/>
      <point x="956" y="1098"/>
      <point x="896" y="1098" type="curve" smooth="yes"/>
      <point x="846" y="1098"/>
      <point x="784" y="1126"/>
      <point x="784" y="1206" type="curve" smooth="yes"/>
      <point x="784" y="1286"/>
      <point x="846" y="1318"/>
      <point x="904" y="1318" type="curve" smooth="yes"/>
      <point x="932" y="1318"/>
      <point x="954" y="1302"/>
    </contour>
  </outline>
</glyph>
<glyph name="fj.lig" format="2">
  <advance width="1063"/>
  <outline>
    <contour>
      <point x="666" y="20" type="curve" smooth="yes"/>
      <point x="828" y="892" type="line"/>
      <point x="104" y="892" type="line"/>
      <point x="104" y="920" type="line"/>
      <point x="1006" y="920" type="line"/>
      <point x="850" y="76" type="line" smooth="yes"/>
      <point x="804" y="-176"/>
      <point x="644" y="-420"/>
      <point x="364" y="-420" type="curve" smooth="yes"/>
      <point x="182" y="-420"/>
      <point x="118" y="-306"/>
      <point x="118" y="-222" type="curve" smooth="yes"/>
      <point x="118" y="-140"/>
      <point x="172" y="-98"/>
      <point x="232" y="-98" type="curve" smooth="yes"/>
      <point x="282" y="-98"/>
      <point x="344" y="-126"/>
      <point x="344" y="-206" type="curve" smooth="yes"/>
      <point x="344" y="-286"/>
      <point x="282" y="-318"/>
      <point x="224" y="-318" type="curve" smooth="yes"/>
      <point x="190" y="-318"/>
      <point x="174" y="-298"/>
      <point x="168" y="-290" type="curve"/>
      <point x="182" y="-328"/>
      <point x="238" y="-392"/>
      <point x="364" y="-392" type="curve" smooth="yes"/>
      <point x="524" y="-392"/>
      <point x="620" y="-222"/>
    </contour>
    <contour>
      <point x="1024" y="1390" type="curve"/>
      <point x="1008" y="1430"/>
      <point x="964" y="1492"/>
      <point x="806" y="1492" type="curve" smooth="yes"/>
      <point x="626" y="1492"/>
      <point x="528" y="1324"/>
      <point x="484" y="1080" type="curve" smooth="yes"/>
      <point x="282" y="-24" type="line" smooth="yes"/>
      <point x="236" y="-274"/>
      <point x="76" y="-520"/>
      <point x="-184" y="-520" type="curve" smooth="yes"/>
      <point x="-346" y="-520"/>
      <point x="-410" y="-406"/>
      <point x="-410" y="-322" type="curve" smooth="yes"/>
      <point x="-410" y="-240"/>
      <point x="-356" y="-198"/>
      <point x="-296" y="-198" type="curve" smooth="yes"/>
      <point x="-246" y="-198"/>
      <point x="-184" y="-226"/>
      <point x="-184" y="-306" type="curve" smooth="yes"/>
      <point x="-184" y="-386"/>
      <point x="-246" y="-418"/>
      <point x="-304" y="-418" type="curve" smooth="yes"/>
      <point x="-338" y="-418"/>
      <point x="-356" y="-398"/>
      <point x="-362" y="-390" type="curve"/>
      <point x="-346" y="-428"/>
      <point x="-306" y="-492"/>
      <point x="-184" y="-492" type="curve" smooth="yes"/>
      <point x="-44" y="-492"/>
      <point x="56" y="-324"/>
      <point x="98" y="-80" type="curve" smooth="yes"/>
      <point x="290" y="1024" type="line" smooth="yes"/>
      <point x="334" y="1276"/>
      <point x="506" y="1520"/>
      <point x="806" y="1520" type="curve" smooth="yes"/>
      <point x="1008" y="1520"/>
      <point x="1072" y="1406"/>
      <point x="1072" y="1322" type="curve" smooth="yes"/>
      <point x="1072" y="1240"/>
      <point x="1018" y="1198"/>
      <point x="958" y="1198" type="curve" smooth="yes"/>
      <point x="908" y="1198"/>
      <point x="846" y="1226"/>
      <point x="846" y="1306" type="curve" smooth="yes"/>
      <point x="846" y="1386"/>
      <point x="908" y="1418"/>
      <point x="966" y="1418" type="curve" smooth="yes"/>
      <point x="1000" y="1418"/>
      <point x="1018" y="1398"/>
    </contour>
  </outline>
</glyph>
<glyph name="four.alt" format="2">
  <advance width="1189"/>
  <outline>
    <contour>
      <point x="1040" y="996" type="curve"/>
      <point x="818" y="-2" type="line"/>
      <point x="628" y="-2" type="line"/>
      <point x="840" y="956" type="line"/>
      <point x="900" y="956"/>
      <point x="1000" y="976"/>
    </contour>
    <contour>
      <point x="984" y="28" type="line"/>
      <point x="984" y="0" type="line"/>
      <point x="454" y="0" type="line"/>
      <point x="454" y="28" type="line"/>
    </contour>
    <contour>
      <point x="82" y="404" type="curve"/>
      <point x="1090" y="404" type="line"/>
      <point x="1090" y="376" type="line"/>
      <point x="30" y="376" type="line"/>
      <point x="310" y="776"/>
      <point x="900" y="1200"/>
      <point x="940" y="1500" type="curve"/>
      <point x="1136" y="1500" type="line"/>
      <point x="1098" y="1210"/>
      <point x="382" y="792"/>
    </contour>
  </outline>
</glyph>
<glyph name="v.alt" format="2">
  <advance width="911"/>
  <outline>
    <contour>
      <point x="330" y="950" type="curve"/>
      <point x="340" y="932" type="line"/>
      <point x="258" y="886"/>
      <point x="230" y="826"/>
      <point x="230" y="754" type="curve" smooth="yes"/>
      <point x="230" y="600"/>
      <point x="428" y="518"/>
      <point x="428" y="270" type="curve" smooth="yes"/>
      <point x="428" y="236"/>
      <point x="418" y="138"/>
      <point x="414" y="92" type="curve"/>
      <point x="710" y="254"/>
      <point x="874" y="436"/>
      <point x="874" y="688" type="curve" smooth="yes"/>
      <point x="874" y="742"/>
      <point x="868" y="790"/>
      <point x="856" y="814" type="curve"/>
      <point x="852" y="772"/>
      <point x="810" y="710"/>
      <point x="736" y="710" type="curve" smooth="yes"/>
      <point x="656" y="710"/>
      <point x="624" y="774"/>
      <point x="624" y="824" type="curve" smooth="yes"/>
      <point x="624" y="884"/>
      <point x="672" y="938"/>
      <point x="746" y="938" type="curve" smooth="yes"/>
      <point x="872" y="938"/>
      <point x="902" y="810"/>
      <point x="902" y="688" type="curve" smooth="yes"/>
      <point x="902" y="350"/>
      <point x="632" y="166"/>
      <point x="242" y="-24" type="curve"/>
      <point x="224" y="-2" type="line"/>
      <point x="228" y="42"/>
      <point x="246" y="172"/>
      <point x="246" y="212" type="curve" smooth="yes"/>
      <point x="246" y="366"/>
      <point x="60" y="498"/>
      <point x="60" y="646" type="curve" smooth="yes"/>
      <point x="60" y="806"/>
      <point x="230" y="902"/>
    </contour>
  </outline>
</glyph>
